<svg id="Camada_1" data-name="Camada 1" xmlns="http://www.w3.org/2000/svg" viewBox="0 0 72.09 156.56"><defs><style>.cls-1,.cls-3{fill:#dedc00;}.cls-1,.cls-2,.cls-5{fill-rule:evenodd;}.cls-2{fill:#289b38;}.cls-4{fill:#fff;}.cls-5{fill:#008d36;}</style></defs><path class="cls-1" d="M72.09,79.13V0H11.2A11.19,11.19,0,0,0,0,11.2V79.13Z"/><polygon class="cls-2" points="0 81.76 0 156.56 72.09 156.56 72.09 139.75 72.09 81.76 0 81.76"/><path class="cls-3" d="M13.86,96.36a4.6,4.6,0,0,1,2.81.93l-.86,1.11a3.2,3.2,0,0,0-1.9-.65,2.55,2.55,0,0,0,0,5.09,2.56,2.56,0,0,0,1.32-.33V101H13.51V99.87h3.23v3.48a4.86,4.86,0,0,1-2.89.88,3.94,3.94,0,1,1,0-7.87"/><path class="cls-3" d="M21.8,96.36a3.94,3.94,0,1,1,0,7.87,3.94,3.94,0,1,1,0-7.87m0,6.48a2.56,2.56,0,0,0,0-5.1,2.57,2.57,0,0,0,0,5.1"/><polygon class="cls-3" points="26.14 96.49 27.92 96.49 29.79 102.19 29.81 102.19 31.7 96.49 33.48 96.49 30.73 104.1 28.87 104.1 26.14 96.49"/><polygon class="cls-3" points="34.39 96.49 39.94 96.49 39.94 97.92 36.03 97.92 36.03 99.6 39.52 99.6 39.52 100.87 36.03 100.87 36.03 102.67 39.98 102.67 39.98 104.1 34.39 104.1 34.39 96.49"/><path class="cls-3" d="M41.29,96.49h3.35c2.17,0,2.92,1.19,2.92,2.41a2.2,2.2,0,0,1-1.39,2.1l1.46,3.1H45.85l-1.17-2.84H42.94v2.84H41.29Zm3.32,3.57c.87,0,1.3-.49,1.3-1.14s-.44-1.12-1.29-1.12H42.94v2.26Z"/><polygon class="cls-3" points="48.9 96.49 50.46 96.49 53.85 101.5 53.85 96.49 55.41 96.49 55.41 104.1 53.85 104.1 50.46 99.11 50.46 104.1 48.9 104.1 48.9 96.49"/><path class="cls-3" d="M60.55,96.36a3.94,3.94,0,1,1-3.95,3.91,3.78,3.78,0,0,1,3.95-3.91m0,6.48a2.57,2.57,0,1,0-2.27-2.57,2.32,2.32,0,0,0,2.27,2.57"/><path class="cls-3" d="M4.8,109H7.31c2.72,0,4.18,1.41,4.18,3.78s-1.37,3.83-4.18,3.83H4.8Zm2.63,6.28a2.47,2.47,0,0,0,0-4.94h-1v4.94Z"/><path class="cls-3" d="M16.32,108.86a3.94,3.94,0,1,1,0,7.88,3.94,3.94,0,1,1,0-7.88m0,6.48a2.57,2.57,0,1,0-2.27-2.56,2.3,2.3,0,0,0,2.27,2.56"/><polygon class="cls-3" points="24.05 108.99 29.6 108.99 29.6 110.43 25.7 110.43 25.7 112.1 29.17 112.1 29.17 113.37 25.7 113.37 25.7 115.17 29.64 115.17 29.64 116.6 24.05 116.6 24.05 108.99"/><path class="cls-3" d="M31.38,114.61a4.46,4.46,0,0,0,2.24.69c.82,0,1.24-.34,1.24-.83,0-1.42-4.11-.46-4.11-3.35,0-1.25,1-2.26,2.79-2.26a6.27,6.27,0,0,1,2.74.64l-.61,1.3a4.55,4.55,0,0,0-2.05-.5c-.73,0-1.16.34-1.16.8,0,1.4,4.11.41,4.11,3.35,0,1.28-1,2.29-2.94,2.29a6.18,6.18,0,0,1-3-.84Z"/><polygon class="cls-3" points="39.7 110.45 37.19 110.45 37.19 108.99 43.86 108.99 43.86 110.45 41.34 110.45 41.34 116.6 39.7 116.6 39.7 110.45"/><path class="cls-3" d="M46.27,109h1.87l2.75,7.61H49.13l-.48-1.42h-2.9l-.46,1.42H43.51Zm-.1,4.92h2l-1-3.09h0Z"/><path class="cls-3" d="M51.82,109h2.5c2.72,0,4.19,1.41,4.19,3.78s-1.37,3.83-4.19,3.83h-2.5Zm2.62,6.28a2.47,2.47,0,0,0,0-4.94h-1v4.94Z"/><path class="cls-3" d="M63.34,108.86a3.94,3.94,0,1,1-4,3.92,3.78,3.78,0,0,1,4-3.92m0,6.48a2.57,2.57,0,1,0-2.28-2.56,2.31,2.31,0,0,0,2.28,2.56"/><polygon class="cls-4" points="5.87 123.14 7.12 123.14 9.51 126.55 11.9 123.14 13.15 123.14 13.15 130.39 11.95 130.39 11.95 124.98 9.5 128.4 7.06 124.98 7.06 130.39 5.87 130.39 5.87 123.14"/><path class="cls-4" d="M17.55,127.15v-.61c0-.46-.27-.77-.9-.77a4.2,4.2,0,0,0-1.73.54l-.44-.94a5.42,5.42,0,0,1,2.22-.58c1.46,0,2.05.73,2.05,1.78V129a.44.44,0,0,0,.5.5v.87c-.91,0-1.29-.18-1.56-.64a2.25,2.25,0,0,1-1.7.74,1.49,1.49,0,0,1-1.65-1.45c0-1.32,1.4-1.82,3.21-1.91m-1.26,2.45a1.67,1.67,0,0,0,1.26-.54v-1.17c-1,0-2,.23-2,1.07,0,.4.3.64.74.64"/><path class="cls-4" d="M20.61,125.81h-.92v-.9h.92v-1.47h1.2v1.47h1.52v.9H21.81v3c0,.45.18.69.56.69a1.37,1.37,0,0,0,.82-.27l.45.76a2.37,2.37,0,0,1-1.43.49c-1.07,0-1.6-.54-1.6-1.65Z"/><path class="cls-4" d="M26.77,124.79a2.86,2.86,0,1,1-2.71,2.8,2.62,2.62,0,0,1,2.71-2.8m0,4.78c.91,0,1.46-.79,1.46-2s-.59-1.85-1.46-1.85-1.49.75-1.49,1.85.55,2,1.49,2"/><path class="cls-4" d="M36.55,123a4.46,4.46,0,0,1,2.57.81l-.64.88a3.32,3.32,0,0,0-1.9-.62,2.42,2.42,0,0,0-2.47,2.61c0,1.67.92,2.74,2.47,2.74a3,3,0,0,0,1.45-.36v-1.71H36.21v-.92h3v3.28a4.59,4.59,0,0,1-2.63.78,3.75,3.75,0,0,1,0-7.49"/><path class="cls-4" d="M40.57,124.91h1.09l.1.9a1.77,1.77,0,0,1,1.59-1,2,2,0,0,1,.73.13L43.86,126a1.81,1.81,0,0,0-.69-.13c-.61,0-1,.38-1.4,1.09v3.42h-1.2Z"/><path class="cls-4" d="M47.09,124.79a2.86,2.86,0,1,1-2.72,2.8,2.62,2.62,0,0,1,2.72-2.8m0,4.78c.91,0,1.46-.79,1.46-2s-.59-1.85-1.46-1.85-1.49.75-1.49,1.85.54,2,1.49,2"/><path class="cls-4" d="M51.06,129a3.43,3.43,0,0,0,1.71.52c.58,0,1-.2,1-.66,0-1.1-3.08-.41-3.08-2.45,0-1.07.94-1.66,2.08-1.66a4.84,4.84,0,0,1,2,.46l-.46.89a3.78,3.78,0,0,0-1.51-.4c-.52,0-.9.21-.9.65,0,1.08,3.06.36,3.06,2.45,0,1.1-.9,1.67-2.15,1.67a4.23,4.23,0,0,1-2.22-.61Z"/><path class="cls-4" d="M56.16,129a3.46,3.46,0,0,0,1.71.52c.58,0,1-.2,1-.66,0-1.1-3.09-.41-3.09-2.45,0-1.07.94-1.66,2.08-1.66a4.77,4.77,0,0,1,2,.46l-.45.89a3.87,3.87,0,0,0-1.52-.4c-.52,0-.9.21-.9.65,0,1.08,3.07.36,3.07,2.45,0,1.1-.9,1.67-2.16,1.67a4.26,4.26,0,0,1-2.22-.61Z"/><path class="cls-4" d="M63.53,124.79a2.86,2.86,0,1,1-2.72,2.8,2.62,2.62,0,0,1,2.72-2.8m0,4.78c.91,0,1.46-.79,1.46-2s-.59-1.85-1.46-1.85-1.49.75-1.49,1.85.55,2,1.49,2"/><path class="cls-4" d="M21.31,138.14c0-1.8.88-2.77,2.19-2.77a2.33,2.33,0,0,1,1.66.76v-3h1.2V141H25.29l-.08-.66a2.3,2.3,0,0,1-1.71.78c-1.32,0-2.19-1-2.19-3m3.85,1.34V137a1.8,1.8,0,0,0-1.37-.69c-.84,0-1.27.63-1.27,1.83s.43,2,1.27,2a1.72,1.72,0,0,0,1.37-.66"/><path class="cls-4" d="M30.19,135.37a2.86,2.86,0,1,1-2.71,2.79,2.62,2.62,0,0,1,2.71-2.79m0,4.78c.91,0,1.46-.79,1.46-2s-.59-1.85-1.46-1.85-1.49.75-1.49,1.85.55,2,1.49,2"/><path class="cls-4" d="M36.84,139.33A4.12,4.12,0,0,0,39,140c.95,0,1.43-.42,1.43-1,0-1.64-4.08-.56-4.08-3.32,0-1.16,1-2.08,2.59-2.08a5.7,5.7,0,0,1,2.51.59l-.46,1a4.59,4.59,0,0,0-2-.49c-.84,0-1.34.43-1.34,1,0,1.62,4.08.52,4.08,3.33,0,1.19-.9,2.1-2.72,2.1a5.52,5.52,0,0,1-2.79-.77Z"/><path class="cls-4" d="M42.84,135.49H44v3.66c0,.6.21,1,.85,1a1.87,1.87,0,0,0,1.44-.73v-3.93h1.2V141H46.42l-.07-.66a2.48,2.48,0,0,1-1.74.78c-1.24,0-1.77-.77-1.77-2Z"/><rect class="cls-4" x="48.94" y="133.15" width="1.2" height="7.82"/><path class="cls-5" d="M45.58,41.38V38.16l-19.07,0v3.15c0,8.44,4.5,12.33,9.11,12.43,5.08.1,10.32-4.36,9.95-12.38m-3.92,3.54,0,1.6,1.43.53.13,1.46-.16.66-.88,0c-.3-.12-.48-.15-.21-.52a.88.88,0,0,0,.51-.12l0,.07V49l.1.12H43l.1-.12v-.39l-.1-.11h-.42c.28-.23.26-.64-.23-.82a3.33,3.33,0,0,0-2.31.18c-.27-.38-.89-.19-1.33.2l-.85.91-.36.15c-.37.05-.81.11-.81-.28.77-.47,1.78-1.18,2-2l-1.28-.09a3.42,3.42,0,0,0-2.16.57L34.16,47c-.59-.13-1.48.4-1.45.79a4.14,4.14,0,0,1-1.42.9l-.37.51H29.73l.06-.58c.85,0,2-1.22,2.24-2a1.09,1.09,0,0,0-.36-1.22h0l.1-.12V44.9l-.1-.12h-.39l-.1.12v.38H31.1l-1,.18L29.83,45l-2-.7a3.32,3.32,0,0,1,.15-.82c.09-.22.5.51.75.63l2.47.1a1.73,1.73,0,0,0,.74-.62c.14-.3-.27-.77-.51-.73l-.36.28c-.15,0-.11-.42-.1-.56l.26-.18a.4.4,0,0,0,0-.6l-.33-.09c-.08-.27-.14-.17-.08-.56l1.72-.33,1.31-.05-.11.37a1.3,1.3,0,0,1,.41,1c.21,1,1,2,1.92,2l6.71,0c1.78.06,2.09-3.36-.93-2.39-1.39.6-1.92,1.61-3.57,1.79-1,.15-2-.49-1.52-1.72a1.5,1.5,0,0,1,.49-.45v.28l.11.12h.39l.1-.12v-.39l0-.09a3,3,0,0,1,1.23.06c-.07.37-.37.39-.69.54,0,.15.14.39-.07.51-.33-.39-1.29-.57-1.11.53.63.73,2.59,0,3.37-.72,1.17-1.26,3.48-1.33,4.2.23.46,2-1.8,2.25-3.12,2.62"/><path class="cls-5" d="M21.69,26.45V25.21h2L18.52,20.3l-.14,2.53-2.15.41,4.53,3.33a1.67,1.67,0,0,1,.93-.12"/><path class="cls-5" d="M50.35,25.57l0,1.06a3.79,3.79,0,0,0,1.09,3.51l.23.11-1.27.6v2.62h0A4.38,4.38,0,0,0,51,35.82h-.57v2h2.08a.27.27,0,0,0,.19.22h2a3.36,3.36,0,0,0-1.27,2.6l0,.21h0c-.07-.13-.13-.25-.19-.35a3.89,3.89,0,0,0-2.79-1.41c-.23,1.79.05,3.1,1.09,3.81a1.64,1.64,0,0,0,1.84.1c.17.28.31.45.48.73H52.64c-.31.21-.16.63,0,.65l3.84,0a.31.31,0,0,0,0-.6H55.38l.55-.67a1.9,1.9,0,0,0,1.73-.17A3.12,3.12,0,0,0,59,39.66a3.73,3.73,0,0,0-2.93,1.05,3,3,0,0,0-.17.28c0-.11,0-.23.07-.36A3,3,0,0,0,54.68,38H56.5a.29.29,0,0,0,.22-.22l2.19,0,1.45-2H58.53A3.3,3.3,0,0,0,59,33.31a3.58,3.58,0,0,0-2.94,1.09,1.1,1.1,0,0,0-.14.18,2.78,2.78,0,0,0-.59-2.46l4.28-1.18-1.54-1.07a3.64,3.64,0,0,0,.94-3A3.43,3.43,0,0,0,56,28.17l-.07.14-.16.09c0-.14.08-.36.1-.5a3,3,0,0,0-1.22-2.72,3.13,3.13,0,0,0-.86,4.11l-.18.1a3.57,3.57,0,0,0-.38-1.49,3.19,3.19,0,0,0-1.57-1.22l4.07-3.08-2.15-.42-.14-2.52-5.17,4.91Zm8.41,1.61a3.71,3.71,0,0,1-.87,2.49l0,0-.18-.12.1-.37.32.08.05-.1-.33-.1.18-.64.4.09,0-.09L58,28.37l.16-.56.4-.36-.06-.09-.29.26.13-.44h.41m-.47,0-1,.47,0,0-.09.06v0l-.9.42a3,3,0,0,1,2-.93m-4.81,8.64h-.62L53.3,35l-.08-.16-.46.84-.49-.6.4-1-.1-.06-.41,1-.47-.54L52,33.7l-.09-.05-.25.76-.74-1-.09.05.71,1-.6.27.05.1.6-.28.53.64-.8.29.07.09.8-.27.44.52H51.38a3.94,3.94,0,0,1-.65-2.44l.48-.15A2.9,2.9,0,0,1,53,34.33a2,2,0,0,1,.48,1.49m.21,0a4.21,4.21,0,0,0-.07-.57h0a2.92,2.92,0,0,0,.28.53Zm.89-.53L53.87,35l0,.13.66.32v.38H54.2a2.17,2.17,0,0,1-.45-1.37,3.54,3.54,0,0,1,.1-1.05v.06l.71.22v.77l-.78-.26v.12l.79.27Zm0-1.72-.74-.17a2.51,2.51,0,0,1,.52-1l.26-.08ZM51.3,42.25a3.41,3.41,0,0,1-.48-1.17l0,.08.6-.27.53.64-.8.29.07.09.8-.28.47.55-.78.21.1.1.75-.19.36.35.15-.11-.34-.39.44-.77-.08-.17-.46.85-.49-.6.4-1.05-.1-.06-.4,1-.48-.54.27-.78-.09,0-.25.75-.74-1-.09.05.71,1-.59.28a7.92,7.92,0,0,1-.15-1.47A3,3,0,0,1,53,40.75c1.3,1.76-.18,3.14-1.7,1.5m3.08,1.54-.76-1.24a.86.86,0,0,0,.12-.51h0a1,1,0,0,0,.67.56c0,.39,0,.8,0,1.19m.44,0V42.62a1,1,0,0,0,.62-.36h0a1.14,1.14,0,0,0,.11.58c-.25.28-.49.63-.74.91m1.39-2.86a3.15,3.15,0,0,1,2.55-1,3.47,3.47,0,0,1-.87,2.49c-1.41,1.34-3.06.23-1.68-1.54m-.54-.15c-.1,2.19-1.88,2.29-2,0a2.77,2.77,0,0,1,1-2.43,2.85,2.85,0,0,1,1,2.38m-.15-4.92h-.06l.06-.11Zm.78-1.26a3.14,3.14,0,0,1,2.55-1,3.76,3.76,0,0,1-.65,2.21H56.62l.47-.47,1.08.29,0-.11-1-.3.49-.53.8.19,0-.1-.78-.17.93-.84-.06-.08-.93.81-.34-.57-.09.06.34.57-.58.6-.38-.77-.08.08.36.76-.5.52L56.11,35l-.08.1.26.7h-.52a2.07,2.07,0,0,1,.53-1.26m-.53-.29a3.84,3.84,0,0,1-.48,1.54h-.53v-.38l.72-.26.05-.18-.73.29,0-.66.88-.33,0-.09-.88.27v-.82l.76-.24,0-.08-.72.22V32.28l.21-.05a2.33,2.33,0,0,1,.82,2M54.56,25.6a2.83,2.83,0,0,1,1,2.38,3.23,3.23,0,0,1,0,.47l-.83.39,0-.55.88-.32,0-.1-.88.28v-.83l.76-.23,0-.09-.72.23V25.82h-.1l0,1.41-.75-.17v.08l.71.21v.78l-.78-.26V28l.79.28v.69h0l-.7-.3,0,.14.5.24a3.73,3.73,0,0,0-.35.16,3,3,0,0,1,.61-3.59m-.73,6.93a3.61,3.61,0,0,0-.42,1.78l0,.29h0a1.42,1.42,0,0,0-.19-.39,2.57,2.57,0,0,0-1.43-1.1Zm-3.07-5.69.44.16.09-.07A2.81,2.81,0,0,1,52.83,28a2,2,0,0,1,.47,1.51l-.36.17-.17-.19.44-.77-.08-.16-.46.84-.49-.6.4-1.05-.1,0-.4,1-.48-.54.27-.78-.09,0-.25.75-.74-1-.09,0,.71,1-.6.28,0,.1.6-.28.53.64-.8.29.07.09.8-.28.47.55-.78.21.1.1.75-.19.14.13c-.27.13-.45.25-.69.36a2.34,2.34,0,0,1-.93-.86,5.17,5.17,0,0,1-.62-2.41,1.06,1.06,0,0,1,.26,0"/><polygon class="cls-5" points="30.63 25.43 25.88 15.7 24.9 17.76 22.62 17.67 28.12 25.43 30.63 25.43"/><polygon class="cls-5" points="44.33 25.43 49.83 17.67 47.54 17.76 46.57 15.7 41.81 25.43 44.33 25.43"/><polygon class="cls-5" points="35.22 25.43 33.92 13.13 32.24 14.9 30.33 13.87 33.36 25.43 35.22 25.43"/><polygon class="cls-5" points="42.2 13.96 40.29 14.99 38.62 13.22 37.31 25.52 39.18 25.52 42.2 13.96"/><path class="cls-5" d="M45.59,30.24H26.52v7.3H45.59Zm-8.58,5-.62-.52-.62.52.25-.77-.55-.39h.68l.24-.75.26.75h.63l-.52.39Z"/><path class="cls-5" d="M22.29,26.27l0,15.77C22.19,53.57,29.76,58.52,37,58c7-.49,13.69-6.11,12.72-15.83V26.27Zm25.45,1.46.17-.52.18.52h.44l-.36.27.17.52-.43-.35-.43.35.18-.52-.38-.27Zm0,1.6.17-.52.18.52h.44l-.36.27.17.53-.43-.36-.43.36.18-.53-.38-.27Zm0,1.7.17-.52.18.52h.44l-.36.27.17.53-.43-.36-.43.36.18-.53L47.28,31Zm0,1.51.17-.52.18.52h.44l-.36.27.17.53L47.91,33l-.43.36.18-.53-.38-.27Zm0,1.7.17-.52.18.52h.44l-.36.27.17.53-.43-.36-.43.36.18-.53-.38-.27Zm0,1.52.17-.52.18.52h.44l-.36.26.17.54-.43-.37-.43.37.18-.54-.38-.26Zm0,1.69.17-.52.18.52h.44l-.36.27.17.53-.43-.36-.43.36.18-.53-.38-.27Zm0,1.61.17-.52.18.52h.44l-.36.27.17.53-.43-.37-.43.37.18-.53-.38-.27Zm0,1.6.17-.52.18.52h.44l-.36.27.17.53-.43-.36-.43.36.18-.53-.38-.27Zm0,1.7.17-.52.18.52h.44l-.36.27.17.53-.43-.36-.43.36.18-.53-.38-.27Zm0,1.6.17-.52.18.52h.44l-.36.27.17.53-.43-.36-.43.36.18-.53L47.28,44ZM46.32,27.73l.17-.52.17.52h.44l-.36.27.17.52-.42-.35-.44.35.18-.52-.38-.27Zm-1.43,0,.17-.52.18.52h.44l-.36.27.17.52-.43-.35-.43.35L44.8,28l-.38-.27Zm-1.42,0,.16-.52.18.52h.44l-.36.27.17.52-.43-.35-.43.35.17-.52L43,27.73Zm-1.52,0,.16-.52.18.52h.44l-.36.27.17.52-.43-.35-.43.35.18-.52-.38-.27Zm-1.34,0,.16-.52.18.52h.44L41,28l.17.52-.43-.35-.42.35.17-.52-.38-.27Zm-1.42,0,.16-.52.18.52H40L39.6,28l.18.52-.43-.35-.44.35.18-.52-.38-.27Zm-1.52,0,.16-.52.18.52h.44l-.36.27.17.52-.43-.35-.43.35.18-.52-.38-.27Zm-1.61,0,.17-.52.18.52h.43l-.36.27.17.52-.42-.35-.43.35L36,28l-.38-.27Zm-1.51,0,.16-.52.18.52h.44L35,28l.17.52-.43-.35-.43.35.17-.52-.37-.27Zm-1.52,0,.16-.52.18.52h.44l-.36.27.17.52-.43-.35-.43.35.18-.52-.38-.27Zm-1.52,0,.17-.52.18.52h.43l-.36.27.17.52-.42-.35-.43.35.17-.52L31,27.73Zm-1.51,0,.16-.52.18.52h.44l-.36.27.17.52-.43-.35-.43.35.18-.52-.38-.27Zm-1.52,0,.16-.52.18.52h.44L28.9,28l.17.52-.43-.35-.43.35.18-.52L28,27.73Zm-1.43,0,.16-.52.19.52h.43l-.36.27.17.52-.43-.35-.42.35L27,28l-.38-.27Zm-1.6,0,.16-.52.18.52h.44l-.36.27.17.52-.43-.35-.43.35.18-.52L25,27.73Zm-1.52,0,.16-.52.18.52h.44l-.36.27.17.52-.43-.35-.43.35.18-.52-.38-.27Zm0,1.6.16-.52.18.52h.44l-.36.27.17.53-.43-.36-.43.36.18-.53-.38-.27Zm0,1.7.16-.52.18.52h.44l-.36.27.17.53-.43-.36-.43.36.18-.53L23.46,31Zm0,1.51.16-.52.18.52h.44l-.36.27.17.53L24.09,33l-.43.36.18-.53-.38-.27Zm0,1.7.16-.52.18.52h.44l-.36.27.17.53-.43-.36-.43.36.18-.53-.38-.27Zm0,1.52.16-.52.18.52h.44l-.36.26.17.54-.43-.37-.43.37.18-.54-.38-.26Zm0,1.69.16-.52.18.52h.44l-.36.27.17.53-.43-.36-.43.36.18-.53-.38-.27Zm0,1.61.16-.52.18.52h.44l-.36.27.17.53-.43-.37-.43.37.18-.53-.38-.27Zm0,1.6.16-.52.18.52h.44l-.36.27.17.53-.43-.36-.43.36.18-.53-.38-.27Zm0,1.7.16-.52.18.52h.44l-.36.27.17.53-.43-.36-.43.36.18-.53-.38-.27Zm0,1.6.16-.52.18.52h.44l-.36.27.17.53-.43-.36-.43.36.18-.53L23.46,44Zm-.47,1.61h.47l.16-.52.18.52h.44l-.36.27.17.53L24.09,46l-.43.36.18-.53ZM24,47.26h.48l.16-.52.18.52h.43l-.35.27.17.53-.43-.36-.43.36.17-.53Zm.83,2.41.18-.53-.38-.27h.47l.16-.52.18.52h.44l-.36.27.17.53-.43-.36Zm.72,1.52.17-.54-.38-.27h.47l.17-.51.18.51h.43l-.36.27.18.54L26,50.83Zm1.32.88-.43.36.18-.53-.39-.27h.47l.17-.52.18.52h.44l-.36.27.17.53Zm1.5,1.61-.43-.36-.43.36.17-.53-.37-.27h.47l.16-.52.18.52h.44l-.36.27Zm1.34,1.25-.43-.36-.43.36L29,54.4l-.38-.27h.47l.17-.52.18.52h.43l-.35.27Zm1.6.63-.43-.36-.43.36.18-.53-.38-.27h.47l.16-.52.18.52h.44l-.36.27Zm1.43.62-.43-.36-.43.36.18-.53-.38-.27h.47l.16-.52.18.52h.44l-.36.27Zm1.61.62-.43-.36-.43.36.17-.53L33.27,56h.47l.17-.51.18.51h.43l-.36.27Zm1.87.09-.43-.36-.43.36.18-.53-.38-.27h.47l.16-.51.18.51h.44l-.36.27Zm-.66-2.52c-4.86-.1-9.5-3.95-9.5-12.39V29.7l20.05,0V42.05c.39,8-5.21,12.43-10.55,12.32m2.62,2.52-.43-.36-.43.36.18-.53-.38-.27h.47l.16-.51.18.51h.44l-.36.27ZM40,56.45l-.43-.36-.43.36.17-.53L39,55.65h.44l.18-.52.16.52h.47l-.38.27Zm1.69-.71-.43-.37-.43.37.18-.54-.36-.26h.43l.18-.52.17.52h.47l-.38.26Zm1.52-.81-.43-.36-.43.36.17-.53-.36-.27h.44l.18-.52.17.52h.46l-.37.27Zm1.52-1-.43-.36-.43.36.17-.53-.36-.27h.44l.18-.52.16.52H45l-.38.27Zm1.51-1.16-.43-.36-.43.36.18-.53L45.24,52h.44l.17-.52L46,52h.47l-.38.27ZM47,51.27l-.43-.36-.43.36.17-.53L46,50.47h.44l.18-.52.16.52h.47l-.38.27Zm.62-1.51-.43-.36-.43.36.17-.53L46.57,49H47l.18-.52.17.52h.47l-.38.27Zm.54-1.61-.43-.36-.43.36.18-.53-.38-.27h.47l.16-.52.18.52h.44l-.36.27Zm.36-1.69-.44-.36-.42.36.17-.53-.36-.27h.44l.17-.52.17.52h.47l-.38.27Z"/><polygon class="cls-5" points="56.11 42.72 56.46 42.34 57.27 42.69 57.42 42.6 56.54 42.22 57.09 41.68 58.17 41.97 58.22 41.86 57.18 41.56 57.67 41.04 58.47 41.22 58.51 41.13 57.73 40.95 58.66 40.11 58.6 40.03 57.67 40.85 57.33 40.28 57.24 40.34 57.58 40.91 57 41.5 56.63 40.73 56.54 40.81 56.9 41.57 56.4 42.1 56.11 41.35 56.03 41.46 56.3 42.18 55.98 42.58 56.11 42.72"/><polygon class="cls-5" points="54.59 39.89 53.85 39.72 53.86 39.8 54.57 40.01 54.57 40.78 53.79 40.52 53.79 40.64 54.58 40.91 54.58 41.62 53.87 41.32 53.89 41.46 54.55 41.77 54.55 42.29 54.76 42.29 54.76 41.78 55.48 41.51 55.53 41.34 54.8 41.63 54.76 40.96 55.64 40.63 55.62 40.54 54.74 40.81 54.74 39.99 55.51 39.76 55.46 39.67 54.74 39.9 54.74 38.49 54.64 38.47 54.59 39.89"/><polygon class="cls-5" points="55.55 49.22 55.96 48.9 56.7 49.38 56.87 49.32 56.06 48.8 56.69 48.35 57.7 48.82 57.77 48.72 56.8 48.25 57.37 47.81 58.13 48.13 58.18 48.04 57.44 47.74 58.49 47.07 58.45 46.97 57.4 47.63 57.16 47.01 57.06 47.05 57.3 47.67 56.63 48.16 56.39 47.34 56.29 47.41 56.52 48.22 55.94 48.65 55.78 47.87 55.68 47.96 55.83 48.72 55.45 49.06 55.55 49.22"/><polygon class="cls-5" points="54.03 48.59 54.23 48.62 54.31 48.12 55.07 47.97 55.14 47.81 54.38 47.97 54.45 47.31 55.37 47.13 55.36 47.04 54.46 47.16 54.59 46.35 55.38 46.24 55.35 46.15 54.6 46.26 54.83 44.87 54.73 44.84 54.46 46.23 53.75 45.94 53.75 46.02 54.41 46.34 54.29 47.1 53.56 46.72 53.54 46.84 54.28 47.23 54.16 47.93 53.51 47.52 53.51 47.66 54.11 48.08 54.03 48.59"/><polygon class="cls-5" points="51.87 47.45 52.44 46.49 52.35 46.41 51.79 47.33 51.41 46.72 51.8 46 51.72 45.94 51.34 46.65 50.78 45.53 50.69 45.56 51.23 46.67 50.59 46.85 50.62 46.95 51.26 46.78 51.68 47.5 50.84 47.65 50.9 47.75 51.72 47.61 52.1 48.23 51.3 48.31 51.38 48.42 52.15 48.35 52.45 48.76 52.62 48.67 52.34 48.23 52.9 47.54 52.85 47.37 52.26 48.13 51.87 47.45"/><polygon class="cls-5" points="52.71 55.28 53.2 55.14 53.71 55.86 53.89 55.87 53.33 55.08 54.08 54.91 54.85 55.72 54.95 55.65 54.22 54.85 54.91 54.66 55.5 55.24 55.58 55.18 55.01 54.62 56.23 54.39 56.23 54.29 55.01 54.5 55.02 53.84 54.91 53.84 54.9 54.5 54.1 54.71 54.18 53.85 54.07 53.88 53.98 54.72 53.28 54.9 53.42 54.11 53.3 54.16 53.14 54.91 52.67 55.09 52.71 55.28"/><polygon class="cls-5" points="51.61 54.15 51.79 54.25 52.06 53.82 52.81 53.97 52.94 53.84 52.17 53.71 52.48 53.12 53.4 53.31 53.43 53.21 52.55 52.99 52.97 52.28 53.75 52.49 53.76 52.39 53.02 52.21 53.76 51 53.68 50.94 52.91 52.12 52.36 51.59 52.32 51.66 52.82 52.21 52.41 52.87 51.88 52.24 51.83 52.34 52.36 52.99 51.98 53.58 51.54 52.97 51.48 53.09 51.88 53.71 51.61 54.15"/><polygon class="cls-5" points="50.92 52.7 50.94 52.52 50.1 52.99 50.01 52.23 50.89 51.55 50.84 51.44 49.97 52.08 49.85 51.38 50.48 50.85 50.43 50.77 49.82 51.28 49.72 50.03 49.62 50.03 49.7 51.26 49.04 51.18 49.03 51.29 49.69 51.37 49.81 52.19 48.97 52.02 48.99 52.13 49.81 52.31 49.92 53.03 49.15 52.8 49.18 52.93 49.92 53.16 50.04 53.65 50.23 53.63 50.15 53.13 50.92 52.7"/><polygon class="cls-5" points="17.58 42.47 16.86 42.14 16.92 42.39 17.59 42.68 17.65 43.6 17.85 43.6 17.79 42.66 18.19 42.35 18.22 42.13 17.78 42.46 17.73 41.65 18.29 41.39 18.3 41.15 17.72 41.46 17.66 40.61 18.28 40.29 18.27 40.03 17.65 40.38 17.6 39.44 18.15 39.23 18.06 39.05 17.59 39.24 17.52 38.19 17.31 38.2 17.38 39.29 16.85 39.04 16.8 39.26 17.39 39.5 17.45 40.39 16.58 40.05 16.6 40.27 17.47 40.62 17.52 41.48 16.73 41.23 16.77 41.41 17.53 41.67 17.58 42.47"/><polygon class="cls-5" points="17.1 43.55 16.49 42.95 16.61 42.55 16.5 42.38 16.36 42.82 15.83 42.3 16.11 41.85 15.97 41.69 15.71 42.19 15.16 41.64 15.43 41.12 15.26 40.95 15 41.49 14.4 40.89 14.7 40.48 14.52 40.4 14.28 40.76 13.59 40.09 13.44 40.2 14.15 40.9 13.59 40.99 13.68 41.16 14.28 41.03 14.86 41.59 14 41.8 14.14 41.93 15.01 41.75 15.57 42.3 14.82 42.52 14.96 42.62 15.7 42.42 16.22 42.93 15.47 43.06 15.67 43.2 16.36 43.06 16.88 43.58 17.1 43.55"/><polygon class="cls-5" points="18.75 49.9 18.94 49.86 18.71 48.94 19.06 48.57 19.05 48.34 18.67 48.75 18.47 47.96 18.98 47.6 18.95 47.37 18.43 47.78 18.22 46.95 18.77 46.53 18.71 46.27 18.17 46.72 17.95 45.82 18.45 45.51 18.34 45.34 17.91 45.62 17.65 44.59 17.45 44.64 17.71 45.71 17.14 45.55 17.13 45.78 17.76 45.91 17.97 46.77 17.06 46.6 17.12 46.8 18.03 47 18.24 47.84 17.42 47.73 17.49 47.9 18.28 48.02 18.48 48.8 17.71 48.6 17.81 48.84 18.53 49 18.75 49.9"/><path class="cls-5" d="M18.79,50a1,1,0,0,0-.64-.11l-.61-.41,0-.42-.14-.14-.05.46-.62-.42.19-.5-.16-.13-.17.53L16,48.4l.18-.57L16,47.7l-.16.58-.7-.49.21-.45-.18-.05-.18.4-.8-.54-.13.13.83.57-.53.19.12.15L15,48l.67.45-.81.36.17.11.82-.34.65.44-.7.35.15.08.69-.34.61.42-.71.26.22.1.65-.26.51.36a.7.7,0,0,0-.3.35l.21,0c.16-.32.46-.27.77-.17Z"/><path class="cls-5" d="M20.05,49.79l.18-.13a.67.67,0,0,0-.69-.14l.22-.45.42,0,.12-.16-.47,0,.3-.67.53.1.1-.19-.55-.07.31-.71.59.08.09-.21-.59-.06L21,46.4l.49.13,0-.19L21,46.23l.39-.88-.15-.1-.41.91-.28-.49-.13.15.33.51-.33.74L20,46.34l-.07.18.47.75-.32.71-.47-.62,0,.16.44.62-.3.67-.38-.65-.06.23.37.59-.33.71-.16.17.2.11a.53.53,0,0,1,.73-.18"/><polygon class="cls-5" points="25.86 60.16 26.03 60.02 26.04 59.35 26.41 59.15 26.45 58.95 26.04 59.17 26.03 58.42 26.54 58.3 26.56 58.09 26.03 58.26 26.01 57.48 26.58 57.3 26.58 57.07 26.01 57.27 26.01 56.42 26.5 56.33 26.44 56.15 26 56.24 25.99 55.27 25.81 55.25 25.82 56.24 25.36 55.92 25.3 56.1 25.82 56.43 25.84 57.24 25.08 56.78 25.09 56.98 25.84 57.46 25.85 58.24 25.16 57.87 25.19 58.04 25.85 58.41 25.86 59.14 25.24 58.71 25.28 58.95 25.86 59.33 25.86 60.16"/><polygon class="cls-5" points="21.52 54.21 21.44 53.99 21.2 54.49 20.78 53.8 21.16 53.31 21.06 53.09 20.68 53.63 20.24 52.91 20.64 52.34 20.5 52.12 20.12 52.71 19.64 51.9 20.03 51.47 19.87 51.34 19.54 51.74 18.99 50.83 18.81 50.94 19.38 51.87 18.8 51.9 18.85 52.11 19.49 52.05 19.95 52.81 19.03 52.92 19.14 53.09 20.07 53.01 20.52 53.74 19.7 53.89 19.82 54.03 20.61 53.91 21.03 54.6 20.24 54.64 20.41 54.83 21.14 54.77 21.62 55.56 21.79 55.47 21.3 54.66 21.52 54.21"/><polygon class="cls-5" points="32.79 41.84 32.4 41.84 32.3 41.95 32.3 42.34 32.4 42.46 32.79 42.46 32.89 42.34 32.89 41.95 32.79 41.84"/><polygon class="cls-5" points="33.78 43.24 33.78 42.84 33.68 42.73 33.29 42.73 33.19 42.84 33.19 43.24 33.29 43.36 33.68 43.36 33.78 43.24"/><polygon class="cls-5" points="34.75 44.51 34.85 44.4 34.85 44.01 34.75 43.89 34.36 43.89 34.26 44.01 34.26 44.4 34.36 44.51 34.75 44.51"/><polygon class="cls-5" points="32.79 43.89 32.4 43.89 32.3 44.01 32.3 44.4 32.4 44.51 32.79 44.51 32.89 44.4 32.89 44.01 32.79 43.89"/><polygon class="cls-5" points="33.86 44.87 33.47 44.87 33.37 44.99 33.37 45.38 33.47 45.49 33.86 45.49 33.96 45.38 33.96 44.99 33.86 44.87"/><polygon class="cls-5" points="32.79 45.85 32.4 45.85 32.3 45.97 32.3 46.36 32.4 46.48 32.79 46.48 32.89 46.36 32.89 45.97 32.79 45.85"/><polygon class="cls-5" points="34.84 45.85 34.45 45.85 34.35 45.97 34.35 46.36 34.45 46.48 34.84 46.48 34.94 46.36 34.94 45.97 34.84 45.85"/><polygon class="cls-5" points="35.82 44.87 35.43 44.87 35.33 44.99 35.33 45.38 35.43 45.49 35.82 45.49 35.92 45.38 35.92 44.99 35.82 44.87"/><polygon class="cls-5" points="36.71 45.85 36.33 45.85 36.22 45.97 36.22 46.36 36.33 46.48 36.71 46.48 36.82 46.36 36.82 45.97 36.71 45.85"/><polygon class="cls-5" points="37.78 44.78 37.4 44.78 37.29 44.9 37.29 45.29 37.4 45.41 37.78 45.41 37.89 45.29 37.89 44.9 37.78 44.78"/><polygon class="cls-5" points="39.66 46.74 39.27 46.74 39.17 46.86 39.17 47.25 39.27 47.37 39.66 47.37 39.76 47.25 39.76 46.86 39.66 46.74"/><polygon class="cls-5" points="40.82 45.85 40.43 45.85 40.33 45.97 40.33 46.36 40.43 46.48 40.82 46.48 40.92 46.36 40.92 45.97 40.82 45.85"/><polygon class="cls-5" points="42.39 47.72 42.78 47.72 42.88 47.61 42.88 47.22 42.78 47.1 42.39 47.1 42.29 47.22 42.29 47.61 42.39 47.72"/><polygon class="cls-5" points="39.75 44.78 39.36 44.78 39.26 44.9 39.26 45.29 39.36 45.41 39.75 45.41 39.85 45.29 39.85 44.9 39.75 44.78"/><path class="cls-5" d="M43.09,64a.38.38,0,0,0-.25-.15l-.12,0-.19,0a.57.57,0,0,0-.33.26.67.67,0,0,0,0,.54.58.58,0,0,0,.29.38.48.48,0,0,0,.44,0,.59.59,0,0,0,.33-.27.69.69,0,0,0,0-.51.64.64,0,0,0-.17-.3"/><path class="cls-5" d="M40,60.39l.15,0h.09l.19-.14a.34.34,0,0,0,0-.23.28.28,0,0,0-.13-.2l-.18-.06h0a.28.28,0,0,0-.2.15.39.39,0,0,0,0,.27Z"/><path class="cls-5" d="M35.75,60.19l-.2.09a.94.94,0,0,0-.13.53c0,.34,0,.49,0,.52l.22.12.2-.1a1,1,0,0,0,.12-.51,1.55,1.55,0,0,0,0-.53Z"/><polygon class="cls-5" points="23.28 60.79 23.3 60.64 23.24 60.71 22.98 60.97 23.24 61.16 23.28 60.79"/><path class="cls-5" d="M56.51,60.23l-.23-2.31A38.35,38.35,0,0,1,51.51,63l1.86-3.37-2.43-2.42a8.67,8.67,0,0,1-.64.72,3.17,3.17,0,0,0,.14-2L52.18,57a.32.32,0,0,0,.33-.51l-1-.59,1-.31a1.7,1.7,0,0,0,1.43.61,3,3,0,0,0,2.73-1.94,3.08,3.08,0,0,0-3.09-.55l-.12.06h0l.22-.26A3.11,3.11,0,0,0,54,50.7l1.71.28a.32.32,0,0,0,.12-.6l-1.12-.19.76-.64a2.28,2.28,0,0,0,1.54.14,2.74,2.74,0,0,0,1.91-2.93,3,3,0,0,0-3.1.58l-.16.18h0l.09-.28a2.9,2.9,0,0,0-.81-2.81,2.77,2.77,0,0,0-1.67,2.38c0,.11,0,.22,0,.32v0h0a2.22,2.22,0,0,0-.12-.39,3.31,3.31,0,0,0-2.56-1.92,3.88,3.88,0,0,0,.53,3.83,1.47,1.47,0,0,0,1.64.31c.13.31.31.64.43.95L52,49.72c-.33.16-.26.6-.08.65l1.82.29a2.81,2.81,0,0,0-2.28,1.48l-.09.2h0v-.22a3.13,3.13,0,0,0-1.65-2.73,3.8,3.8,0,0,0-.89,3.7,1.55,1.55,0,0,0,1.41.91c0,.34,0,.72,0,1l-1-.63c-.37,0-.47.46-.32.57l1.1.67a2.67,2.67,0,0,0-2.21,1.49l0,.1h0v-.16a3.28,3.28,0,0,0-1.68-2.73,3.44,3.44,0,0,0-1,3.37l-.72-.83c-4.7,2.76-11.69,3-15.7.18-.2-.18-.32-.27-.34-.26l-1,1.24A5.18,5.18,0,0,0,26,54.57c-1,.37-1.37,1.74-1.29,3a4.51,4.51,0,0,0-1.54-1.49c.39-.2.46-.94,0-1,.75-.79,1-4-.31-5.35-1,.24-1.6,1.48-1.69,2.73a4.12,4.12,0,0,0-1.29-1.59c.53.06.82-.69.41-1,.95-.52,2.55-3.31,1.38-5.24a2.69,2.69,0,0,0-2.48,1.93,2.73,2.73,0,0,0-.65-1.74.53.53,0,0,0,.54-.87,4.56,4.56,0,0,0,2.4-4.89,2.59,2.59,0,0,0-3,1.75,3.24,3.24,0,0,0-.15-2.06c.51.19.81-.5.49-.85l2.8,0v-2h-.88c.63-.56.74-2.44.74-2.44V30.85s-.27-.14-1-.47a4.15,4.15,0,0,0,1-3.67,2.51,2.51,0,0,0-2.86,1.38,3,3,0,0,0-1-3.11,2.9,2.9,0,0,0-1.45,2.92,3.62,3.62,0,0,0-3.35-1.29,3.4,3.4,0,0,0,1.06,3.24l-1.54,1.09,4,1.11c.11.11.09.19.23.2A3.85,3.85,0,0,0,16,34.18C15.1,33.25,14.53,33,12.78,33a3.3,3.3,0,0,0,.83,2.87H11.73l1.45,2,3,0c-.15.39,0,.65.28.73a3.76,3.76,0,0,0-.43,1.74,3.83,3.83,0,0,0-3.33-.87c-.32,2.21,2,4.25,3.71,4.62a.55.55,0,0,0,.45.77,4.83,4.83,0,0,0-.11,2.32,3.86,3.86,0,0,0-3.54-.57c.14,2.1,2.77,3.82,4.48,3.88a.51.51,0,0,0,.63.62,4.29,4.29,0,0,0,.38,2.32,4.18,4.18,0,0,0-3.33.65c.67,1.9,3.79,2.92,5.44,2.47.09.53.65.44.92.25,0,.23,0,.44.1.34l-2.42,2.43L21.21,63a40.5,40.5,0,0,1-4.73-5.07l-.23,2.31-2.57-.83c3,4.5,7.38,8.59,12.11,10.48L27.34,67l-.68-1.74a26.79,26.79,0,0,0,8.66,1.89l.23-3.25-1.06-1.2a12.06,12.06,0,0,0,4,0l-1.21,1.33.23,3.25a26.53,26.53,0,0,0,8.66-1.93L45.42,67,47,69.91c4.73-1.92,9.08-6,12.11-10.48ZM50.86,47.94a3.83,3.83,0,0,1-.18-2.71,2.68,2.68,0,0,1,2.1,1.51c1,1.94-.83,2.91-1.92,1.2M13.71,27.37l-.09.06.15.16.18.61-.22,0,.08.18.19,0,.19.67-.11,0,.14.13h0l.11.39-.12.08a4.41,4.41,0,0,1-1.12-2.76A3.59,3.59,0,0,1,16,28.21c-1.28-.59-2.28-1.05-2.31-1.05Zm17.13,32h0a1.66,1.66,0,0,0,.37-.09,1.75,1.75,0,0,0,.24-.15l0,0,.23,0L31.14,61l-.3-.11.4-1.26-.13,0H31l-.19,0-.09,0Zm-1.07-.41h0a2.2,2.2,0,0,0,.37-.07,1.86,1.86,0,0,0,.25-.14l0,0,.22.08L30,60.56l-.31-.13.47-1.23-.14,0h-.37Zm-2.44,1.38.61.56,1.29,1.36a22.8,22.8,0,0,1-3-1.54,2.24,2.24,0,0,1,.74.25.56.56,0,0,0,.39-.63m-1.93-1c-1.08-2.15-.07-4.1.6-4.32a5.71,5.71,0,0,1,1,3.46l-.74.92.48.44-.1.23c.66.07.47.69.19.67a1.9,1.9,0,0,0-1-.2l-.37-.24-.47-.58.16-.48L25.1,59l-.17.53-.51-.64.31-.54-.13-.19-.3.59-.53-.67.32-.62-.16-.2-.31.64L23,57.17l.33-.49-.17-.1-.28.43-.66-.83-.17.13.69.86-.58.1.08.21.63-.15.55.69-.61.16q-.42-.39-.81-.81a2.77,2.77,0,0,1,0-1.42c1.11,0,2.21,1.27,3.33,3.35m-2.64,1.91-.35.4-.28-.2,1.25-1.3.09.06,0,0v0l.12.08-.18,2.07-.29-.19.07-.61Zm1-2.22c-.26-.21-.52-.42-.76-.65l.59-.13.54.67Zm.49,0,.5.63-.11,0c-.24-.18-.49-.36-.72-.55Zm-.15,2-.4-.27.12-.3,1.07.68-.11.31-.41-.25-.54,1.42-.26-.17Zm.75-1.19h0l.07.08ZM24.53,62v0a1,1,0,0,1,.4-.57.55.55,0,0,1,.58,0,.64.64,0,0,1,.31.3,1.19,1.19,0,0,1,.12.45,1.54,1.54,0,0,1-.09.52,1.09,1.09,0,0,1-.24.41.63.63,0,0,1-.36.19H25.2a.71.71,0,0,1-.31-.08.93.93,0,0,1-.42-.78,1.22,1.22,0,0,1,.06-.46M18.36,38.47A2.53,2.53,0,0,0,18,37.9h.74c.33.43-.16.74-.36.57m-.75-3.15v-.85l.64-.28v-.26l-.64.3,0-.93.55-.18-.07-.18-.48.16v-.71l.5.13a7.11,7.11,0,0,1,.08,3.39h-.6v-.4l.59-.23,0-.23Zm3.32-2,.48.14a4.94,4.94,0,0,1-.87,2.48H19.47l.36-.46.54.22.15-.19-.56-.2.53-.66.44.24.06-.18-.39-.2.59-.76-.12-.14-.62.79-.15-.54-.17.1.21.59-.5.63-.31-.83-.11.16.29.84-.46.59h0l-.29-.69-.09.15.22.54h-.79a4.24,4.24,0,0,1,2.67-2.62m-2.37-.66,1.9.53a2.51,2.51,0,0,0-1.93,1.56,2.79,2.79,0,0,0,0-2.09m2.85-5.71a5,5,0,0,1-1.16,3.31L19.73,30l.14-.14-.52-.2.48-.61.54.22.15-.19-.56-.2.53-.66.44.24.06-.18-.39-.2.59-.77-.12-.13-.62.78-.15-.54-.17.11.21.58-.5.64-.31-.83-.11.16.29.84-.49.61-.3-.71-.09.15.29.7,0,0-.69-.32c.69-1.89,2.2-2.59,3-2.44m-4.94,1.54a3.23,3.23,0,0,1,1.24-3.11c.76.62.9,2,.61,4l-.56-.26.53-.2,0-.24-.61.27V28l.64-.28V27.5l-.64.31,0-.93.56-.18-.08-.19-.48.17V25.62h-.21v1.09L17,26.43l-.06.21.58.28v.89l-.85-.39v.21l.84.41v.86L17,28.72l-.57-.26m.63,3.78.32.09v.8l-.52-.28-.06.21.58.28v.89l-.85-.39v.22l.84.41v.86l-.77-.3,0,.18.75.3v.4h-.86a4,4,0,0,1,.54-3.67m-1.17,3.67.16-.24L16,35.5l-.25.41h-.1l-.46-.51.31-.5-.16-.18-.29.52-.56-.64.31-.39-.16-.09-.27.35-.65-.72-.15.1.66.74-.56.06.08.18.61-.09.54.59-.87.16.13.14L15,35.5l.37.41H14a4.35,4.35,0,0,1-1-2.57c1.75.35,2.58.25,3.51,2.57Zm.49,2h.65a4.45,4.45,0,0,0-.38.55c-.17,0-.41-.16-.27-.55M16.64,44a6,6,0,0,1-3.72-4.24c1.89.26,2.7.07,3.88,2.84a4.24,4.24,0,0,1,.63-4.69h0c.89.66,1.06,2.33.77,4.68.35-2.4,2.21-3.51,3.11-3.32A5.28,5.28,0,0,1,19,43.74a.62.62,0,0,0-.61-.19l.37-.51.41.05.15-.14-.46-.06.42-.61.49.19.14-.17-.54-.16.44-.64.56.18.14-.19L20,41.32l.49-.7.46.22.05-.18-.41-.18.55-.8L21,39.55l-.56.83-.19-.54-.15.12.23.57-.46.67-.35-.81-.1.16.33.82-.44.65-.35-.7-.08.16.33.69-.41.6-.26-.71-.1.21.25.65-.47.68h.09a1,1,0,0,0-.3.21l.17.14a.55.55,0,0,1,.7-.09h0c.5.44,0,.83-.24.66a1.76,1.76,0,0,0-.82-.8l-.11.07a.8.8,0,0,0-1.17.13l.21.06c.2-.27.48-.19.76,0v0a2.91,2.91,0,0,0-.44.62c-.16.08-.58,0-.36-.6m1.76,6.91c-.15.1-.59,0-.47-.54a6,6,0,0,1-4.42-3.51c1.62-.07,2.74-.22,4.34,2.12a4,4,0,0,1-.24-4.74c1,.47,1.47,2.09,1.61,4.47-.09-2.43,1.41-4,2.39-3.79a5.12,5.12,0,0,1-1.55,5c.56.34.13.83-.12.69A1.78,1.78,0,0,0,19,49.9a1.08,1.08,0,0,0-.31.33h0l-.07.21a4,4,0,0,0-.18.46m1.45-.11a2.92,2.92,0,0,0-1-.51l.17-.16a2.68,2.68,0,0,1,.82.67m1.74,5.87c-.11.14-.55.22-.61-.37h0c.06-.34.36-.39.69-.38l.06-.13a2.33,2.33,0,0,0-.13.88m.18-1h0a1.06,1.06,0,0,0-.6.07l-.75-.23-.08-.41-.18-.1.09.46-.72-.22,0-.53-.2-.08v.56L18.63,55v-.59l-.22-.07,0,.6-.81-.26.06-.5h-.19l0,.44-.92-.28-.08.16.95.3-.44.33.15.11.47-.39.78.23-.67.59.19.05.68-.57.75.23-.56.54.17,0,.56-.53.7.22-.6.46.23,0,.55-.44.63.2a.69.69,0,0,0-.22.45c-1,.15-3.75,0-5-2.08,1.8-.65,2.45-1.09,4.77.72-2.25-1.76-2-3.6-1.64-4.45,1,.26,2,1.55,2.86,3.77-.79-2.28.44-4.11,1.22-4.36A6,6,0,0,1,23,55a.64.64,0,0,0-.68.11l.1-.64.39-.15.06-.19-.43.16.09-.74.52-.06.05-.2-.55.09.09-.76.58-.1,0-.24-.59.12.11-.84.5,0,0-.19-.44,0,.12-1-.18-.05-.12,1-.41-.38-.09.18.48.39-.1.81-.69-.56V52l.68.58-.1.78-.63-.46V53l.61.46-.08.72-.56-.5v.23l.53.46-.12.82.13-.08a1.17,1.17,0,0,0-.2.36l.22,0c0-.17.32-.53.61-.4,0,0,.6.4.08.72a1.84,1.84,0,0,0-1.1-.33Zm-.08,3.11.16.12,0,0,.15.11-.27,1.33v0l.8-.89.15.11,0,0,.16.12-.8,1.65-.25-.21.46-1-.69.77-.1-.08,0,0v0l-.14-.12.22-1.09-.43.92-.26-.22Zm5.2,8.05a25.56,25.56,0,0,1-5-3.32l-1.26-2.34a24.47,24.47,0,0,0,5.61,4.18Zm.61-2.59a.86.86,0,0,1-.34.07h0a.57.57,0,0,1-.28-.08.84.84,0,0,1-.51-.74,1.4,1.4,0,0,1,0-.5,1.69,1.69,0,0,1,.21-.45.54.54,0,0,1,.37-.22h.1a.92.92,0,0,1,.31.07l.26.2a.63.63,0,0,1,.15.28,1,1,0,0,1,0,.35v.07l-.29,0V63.2l0-.2-.08-.15-.15-.13-.19,0-.15,0-.11.1a1,1,0,0,0-.14.29,1.78,1.78,0,0,0,0,.39.45.45,0,0,0,.11.25l.2.18.22,0,.14,0,.07-.22L27,63.55l.09-.32.66.32-.19.69Zm1,.7-.1-.46c0-.11,0-.2-.06-.28l-.05-.13L28.25,64h0l-.06,0-.13,0-.17.77-.29-.11.4-1.84.65.23a.75.75,0,0,1,.27.16.48.48,0,0,1,.14.24.82.82,0,0,1,0,.32.45.45,0,0,1-.18.31l-.22.08v0l.06.17,0,.11.13.66Zm1.4.37-.19,0-.19,0a.79.79,0,0,1-.35-.24,1,1,0,0,1-.17-.43,1.28,1.28,0,0,1,0-.48,1.08,1.08,0,0,1,.32-.65.53.53,0,0,1,.57-.1.54.54,0,0,1,.33.25.74.74,0,0,1,.19.41,1.46,1.46,0,0,1,0,.51,1,1,0,0,1-.2.46.57.57,0,0,1-.32.27m1.66,0a1.09,1.09,0,0,1-.11.27.43.43,0,0,1-.24.17l-.16,0-.15,0a.81.81,0,0,1-.32-.17.79.79,0,0,1-.18-.7v-.07l.29.1v.05a.4.4,0,0,0,0,.2l.1.16.16.09h.15l.1-.06,0-.1v-.12l-.07-.1,0,0L31,64.86a1.06,1.06,0,0,1-.26-.2.8.8,0,0,1-.13-.22v-.25a.4.4,0,0,1,.12-.27l.21-.15h0a.7.7,0,0,1,.29,0,.75.75,0,0,1,.28.15.5.5,0,0,1,.16.26.89.89,0,0,1,0,.32v.08l-.29-.1v0l-.05-.22a.39.39,0,0,0-.19-.11H31l-.08.12,0,.13a.74.74,0,0,0,.22.17,1.74,1.74,0,0,1,.29.2l.15.24a.61.61,0,0,1,0,.3m1.31-.54v.06l-.29,0v-.06l-.05-.21-.19-.09c-.11,0-.15,0-.19,0l-.08.13,0,.13a1.24,1.24,0,0,0,.23.15h0a1.82,1.82,0,0,1,.28.17l.16.23a.75.75,0,0,1,0,.3.52.52,0,0,1-.1.27.47.47,0,0,1-.24.19l-.18,0h-.11a.81.81,0,0,1-.33-.15.7.7,0,0,1-.18-.31.74.74,0,0,1,0-.37v-.06l.29.06v.25l.1.17.17.07h.17l.07-.06v0l0-.09,0-.11h0l-.06-.09-.13-.07-.1-.06A1.45,1.45,0,0,1,32,65l-.14-.23,0-.25a.74.74,0,0,1,.1-.26.48.48,0,0,1,.24-.17.56.56,0,0,1,.29,0,.86.86,0,0,1,.28.13.49.49,0,0,1,.17.25.65.65,0,0,1,0,.31m1.47.63a1.29,1.29,0,0,1-.15.48.59.59,0,0,1-.29.31.47.47,0,0,1-.29.08h-.08a.67.67,0,0,1-.38-.2.93.93,0,0,1-.22-.39,1.56,1.56,0,0,1,0-.48,1.26,1.26,0,0,1,.27-.7.59.59,0,0,1,.56-.19.68.68,0,0,1,.36.18,1,1,0,0,1,.22.4,1.65,1.65,0,0,1,0,.51m.8-1.53a30.66,30.66,0,0,1-5.43-1.4l-1-1.25a32,32,0,0,0,5.42,1.56Zm-.63-2.15-.33,0,.2-1.32-.14.06-.17,0-.08,0-.09,0,0-.36h0a1.23,1.23,0,0,0,.33-.16l.21-.19,0,0,.24,0Zm1.73-.3a.57.57,0,0,1-.24.31.63.63,0,0,1-.35.09h0a.55.55,0,0,1-.43-.23,1.2,1.2,0,0,1-.16-.76,1.71,1.71,0,0,1,.09-.54.73.73,0,0,1,.24-.31.74.74,0,0,1,.36-.09.49.49,0,0,1,.28.09l.18.19a.78.78,0,0,1,.11.28c0,.1,0,.26,0,.44a2,2,0,0,1-.08.53m14.34-.23.18.28-1,.69L48.7,60.54l.29-.21.89,1.32ZM47.9,62.74l.18.06a.65.65,0,0,0,.23-.07.45.45,0,0,0,.23-.26.61.61,0,0,0-.14-.4l-.56-.94.3-.18.57.94a1.6,1.6,0,0,1,.18.42.74.74,0,0,1-.06.37.87.87,0,0,1-.33.33.93.93,0,0,1-.44.14h0a.57.57,0,0,1-.32-.1h0a2.11,2.11,0,0,1-.29-.36l-.55-.93.3-.2.57.93a.78.78,0,0,0,.19.26m-.09-2.8.19-.31h.24l-.43.31m2.85-6a2.05,2.05,0,0,0,.38-.51,1.14,1.14,0,0,0,.27,1c-.22.32-.42.68-.64,1Zm1.72,1.17c-.36.1-1,.37-1.31.48l.59-1a1.34,1.34,0,0,0,.91-.15h0a1.49,1.49,0,0,0-.2.62m1.44-1.27a2.9,2.9,0,0,1,2.56.43,3.5,3.5,0,0,1-2,1.69c-1.92.28-2.69-1.34-.59-2.12m.28-3.74L54.29,49a1.2,1.2,0,0,0,.8-.45h0a1.71,1.71,0,0,0,0,.62c-.29.23-.75.7-1,.94M56,47.46a3.15,3.15,0,0,1,2.67-.53,2.73,2.73,0,0,1-1.27,2.32c-1.59,1-3-.27-1.4-1.79m-2.51-.53a2.77,2.77,0,0,1,1.38-2.23,2.83,2.83,0,0,1,.62,2.51c-.47,2.15-2.23,1.95-2-.28m.21,3.14-.55-1.35a2.29,2.29,0,0,0,.15-.77h0a1.36,1.36,0,0,0,.61.95c-.09.38-.13.79-.22,1.17m-2,2.35a2.75,2.75,0,0,1,2.12-1.54,2.81,2.81,0,0,1-.38,2.55c-1.24,1.82-2.8,1-1.74-1m-2.79-.06a4.82,4.82,0,0,1,.85-2.59A2.73,2.73,0,0,1,51.08,52c.19,2.18-1.8,2.57-2.24.39M48,57.42a2.7,2.7,0,0,1,2.11-1.54,2.81,2.81,0,0,1-.38,2.55l0,.07-.4.34-.76-.13.32-.59.92.18,0-.09L48.89,58l.43-.7.77.2v-.1l-.73-.18L50.1,56,50,55.93l-.77,1.19-.55-.54,0,.07.49.56-.4.66-.53-.63-.06.1.53.65-.37.59L47.88,58l-.05.12.4.62-.28.44.18.11.27-.44.72.15-.55.43c-.81.22-1.33-.61-.59-2m-.52,1h0a1.86,1.86,0,0,0,.2,1c-.23.31-.43.67-.65,1V58.94a1.49,1.49,0,0,0,.45-.52ZM46,54.77A2.73,2.73,0,0,1,47.42,57c.09,1-.34,1.6-.85,1.73l-.08-.49.77-.43,0-.17-.83.47-.1-.77.89-.68-.06-.1-.87.64-.12-.71.64-.52,0-.09-.61.52-.11-1.25H46l.09,1.24-.67-.09v.11l.65.08.12.83-.83-.18v.12l.82.18.11.71-.77-.22,0,.12.73.24.12.47c-.52,0-1.07-.43-1.19-1.37A3.42,3.42,0,0,1,46,54.77m0,4.13a1.52,1.52,0,0,0,.47.1c0,.33,0,.71,0,1l-.44-.27.39-.34Zm-.43,1.33.88.54a23.11,23.11,0,0,1-3,1.5L44.82,61Zm-2.55-1.89.12.25v0a2.52,2.52,0,0,0-.09.55,3.29,3.29,0,0,0,0,.66,1.85,1.85,0,0,0,.13.47l0,.05-.31.14,0-.06a4,4,0,0,1-.15-.5v0a5.92,5.92,0,0,1-.06-.62c0-.15,0-.3.06-.44l-.73.35-.15-.3ZM41.85,59l.08.27v0a2,2,0,0,0-.16.53,4.47,4.47,0,0,0,0,.67,1.74,1.74,0,0,0,.07.48V61l-.32.09,0-.06a3,3,0,0,1-.08-.52v-.12a4.61,4.61,0,0,1,0-.52,2.13,2.13,0,0,1,.11-.42l-.77.25-.11-.32Zm-2.24.81A.56.56,0,0,1,40,59.5a.55.55,0,0,1,.36,0,.72.72,0,0,1,.31.21,1.45,1.45,0,0,1,.2.5,1.57,1.57,0,0,1,.06.56.74.74,0,0,1-.14.37.61.61,0,0,1-.33.22l-.16,0a.46.46,0,0,1-.25-.06.58.58,0,0,1-.25-.33l0-.06.32-.12,0,.06.1.15.16,0L40.5,61l.06-.1,0-.06v-.13l0-.13,0,.06,0,0a.53.53,0,0,1-.23.14h-.14a.57.57,0,0,1-.32-.09.64.64,0,0,1-.26-.4.7.7,0,0,1,0-.53m-1.17.87,0-.35,0,0A1.39,1.39,0,0,0,38.7,60l.15-.26v0l.23,0,.3,1.89-.33.05-.2-1.3-.12.1-.15.1-.07,0Zm.13,2.08a37.11,37.11,0,0,0,5.79-1.77L43,62.35a31.57,31.57,0,0,1-5.28,1.5Zm2.94,2.47a.68.68,0,0,1-.08.31l-.12.18,0,0a.63.63,0,0,1-.22.16,1,1,0,0,1-.3.09l-.71.16-.27-1.87.65-.15.14,0,.21,0a.66.66,0,0,1,.3.07.61.61,0,0,1,.28.27,1.75,1.75,0,0,1,.16.42v0a.92.92,0,0,1,0,.37m2.15-.44a.83.83,0,0,1-.21.43,1.13,1.13,0,0,1-.4.27,1.06,1.06,0,0,1-.31,0l-.19,0a.85.85,0,0,1-.44-.24,1.24,1.24,0,0,1-.25-.41v0a1,1,0,0,1,0-.77.85.85,0,0,1,.55-.46.86.86,0,0,1,.5,0,.84.84,0,0,1,.42.23,1,1,0,0,1,.26.45,1,1,0,0,1,0,.53M45.82,64a.59.59,0,0,1-.27-.29l0,0,.3-.15,0,0,.15.15.18,0,.25-.07.17-.12.06-.14,0-.13-.07-.07h-.16l-.19,0-.11,0a2.17,2.17,0,0,1-.37.06.49.49,0,0,1-.28-.07l-.2-.19a.61.61,0,0,1,0-.3.7.7,0,0,1,.14-.29.81.81,0,0,1,.28-.22,1,1,0,0,1,.37-.11h0a.78.78,0,0,1,.33.06.83.83,0,0,1,.23.23l0,0-.31.18,0,0-.19-.12h0l-.23.07a.34.34,0,0,0-.21.17v.15l.1.09A1.43,1.43,0,0,0,46,62.9h0a1.76,1.76,0,0,1,.39-.08.56.56,0,0,1,.53.28.67.67,0,0,1,.05.31.52.52,0,0,1-.14.32.66.66,0,0,1-.28.23,1.11,1.11,0,0,1-.42.12h0a.56.56,0,0,1-.35-.1m0,2.68.63-1.48A24.47,24.47,0,0,0,52.06,61L50.8,63.34a24.83,24.83,0,0,1-5,3.32"/><polygon class="cls-5" points="28.7 63.7 28.74 63.61 28.72 63.43 28.55 63.3 28.21 63.17 28.12 63.6 28.43 63.71 28.61 63.76 28.68 63.71 28.7 63.7"/><path class="cls-5" d="M30.05,63.87l-.2-.13h-.11l-.2.06a.76.76,0,0,0-.21.46.8.8,0,0,0,0,.49.49.49,0,0,0,.26.25l.11,0,.21-.08a.79.79,0,0,0,.2-.43.88.88,0,0,0-.09-.63"/><path class="cls-5" d="M25,63a.37.37,0,0,0,.31,0,.77.77,0,0,0,.26-.39.83.83,0,0,0,.05-.34.77.77,0,0,0-.06-.3l-.19-.17-.17,0-.13,0c-.11,0-.2.17-.28.39a1,1,0,0,0,0,.49A.55.55,0,0,0,25,63"/><path class="cls-5" d="M41.05,64.5l-.21-.12a1.62,1.62,0,0,0-.3,0l-.33.08.2,1.21.33-.07.25-.09.12-.1.09-.23a1.14,1.14,0,0,0,0-.32.73.73,0,0,0-.15-.38"/><path class="cls-5" d="M33.91,64.73l-.21-.12h0a.39.39,0,0,0-.27.1.84.84,0,0,0-.17.5.82.82,0,0,0,.08.48.39.39,0,0,0,.28.2h.06l.25-.1a.84.84,0,0,0,.16-.46A1.43,1.43,0,0,0,34,65a.44.44,0,0,0-.13-.24"/></svg>