<svg id="Camada_1" data-name="Camada 1" xmlns="http://www.w3.org/2000/svg" viewBox="0 0 170.07 51.37"><defs><style>.cls-1{fill:#fff;fill-rule:evenodd;}</style></defs><path class="cls-1" d="M89.54,40.24c-.75,0-1.27.63-1.27,1.57s.47,1.68,1.27,1.68,1.24-.67,1.24-1.68-.5-1.57-1.24-1.57"/><path class="cls-1" d="M106.77,40.24c-.74,0-1.26.63-1.26,1.57s.46,1.68,1.26,1.68,1.24-.67,1.24-1.68-.5-1.57-1.24-1.57"/><path class="cls-1" d="M120.72,40.24c-.75,0-1.27.63-1.27,1.57s.47,1.68,1.27,1.68,1.24-.67,1.24-1.68-.5-1.57-1.24-1.57"/><polygon class="cls-1" points="125.64 23.8 124.36 27.71 126.97 27.71 125.67 23.8 125.64 23.8"/><path class="cls-1" d="M126.85,41.79c0,1.07.36,1.69,1.08,1.69a1.47,1.47,0,0,0,1.16-.56V40.83a1.52,1.52,0,0,0-1.16-.59c-.72,0-1.08.54-1.08,1.55"/><path class="cls-1" d="M80,43a.55.55,0,0,0,.63.55,1.4,1.4,0,0,0,1.06-.46v-1c-.81,0-1.69.19-1.69.9"/><path class="cls-1" d="M86.75,15c1.69,0,2.89-1.28,2.89-3.25a2.9,2.9,0,1,0-5.76,0c0,2,1.19,3.25,2.87,3.25"/><path class="cls-1" d="M117.23,10c0-.83-.55-1.41-1.62-1.41h-2.13v2.85h2.11c1.1,0,1.64-.62,1.64-1.44"/><path class="cls-1" d="M86.63,29.52c1.69,0,2.88-1.28,2.88-3.24a2.9,2.9,0,1,0-5.76,0,2.92,2.92,0,0,0,2.88,3.24"/><path class="cls-1" d="M135.75,15c1.69,0,2.89-1.28,2.89-3.25a2.9,2.9,0,1,0-5.76,0c0,2,1.19,3.25,2.87,3.25"/><path class="cls-1" d="M75.38,23.18H74.14v6.25h1.24c2,0,3-1.2,3-3.15a2.82,2.82,0,0,0-3-3.1"/><path class="cls-1" d="M133.35,40.24c-.74,0-1.26.63-1.26,1.57s.47,1.68,1.26,1.68,1.24-.67,1.24-1.68-.5-1.57-1.24-1.57"/><path class="cls-1" d="M134.83,23.18h-1.24v6.25h1.24c2,0,3-1.2,3-3.15a2.82,2.82,0,0,0-3-3.1"/><path class="cls-1" d="M146.07,23.07a2.9,2.9,0,0,0-2.87,3.21c0,2,1.19,3.24,2.87,3.24A2.92,2.92,0,0,0,149,26.28a2.9,2.9,0,0,0-2.89-3.21"/><path class="cls-1" d="M141.83,0H61.68V51.36H170.07V0ZM121,6.93h2l4.29,6.33V6.93h2v9.62h-2L123,10.24v6.31h-2Zm-9.62,0h4.23c2.75,0,3.7,1.51,3.7,3.05a2.77,2.77,0,0,1-1.76,2.65l1.84,3.92h-2.24L115.68,13h-2.2v3.59h-2.09Zm-6.52,17.26c0-1.59,1.31-2.86,3.53-2.86a7.94,7.94,0,0,1,3.47.81l-.77,1.64a5.8,5.8,0,0,0-2.6-.64c-.92,0-1.47.44-1.47,1,0,1.77,5.19.52,5.19,4.24,0,1.62-1.23,2.88-3.71,2.88a7.64,7.64,0,0,1-3.83-1.06l1-1.62a5.72,5.72,0,0,0,2.83.87c1,0,1.57-.43,1.57-1,0-1.8-5.2-.59-5.2-4.23m-2.2-17.26h7V8.74h-4.93v2.12h4.4v1.61h-4.4v2.27h5v1.81h-7.07Zm.21,18.5V27h-4.4V29.3h5v1.82H96.4V21.49h7v1.82H98.48v2.12ZM86.75,6.76a4.77,4.77,0,0,1,5,5,5,5,0,1,1-10,0,4.78,4.78,0,0,1,5-5m-.12,14.57a4.77,4.77,0,0,1,5,5,5,5,0,1,1-10,0,4.78,4.78,0,0,1,5-5M76.71,6.76a5.82,5.82,0,0,1,3.55,1.18L79.17,9.35a4,4,0,0,0-2.4-.83,2.92,2.92,0,0,0-3,3.16c0,2,1.1,3.28,3,3.28a3.28,3.28,0,0,0,1.67-.42V12.62H76.27V11.2h4.07v4.4a6.13,6.13,0,0,1-3.64,1.12,4.75,4.75,0,0,1-5-5,4.76,4.76,0,0,1,5-4.92m3.81,19.5c0,3.07-1.73,4.86-5.29,4.86H72.07V21.49h3.16c3.43,0,5.29,1.78,5.29,4.77M78,44.18H77V39.6l-2.07,2.9-2.07-2.9v4.58h-1V38h1.06l2,2.89,2-2.89h1Zm5.18,0c-.77,0-1.1-.15-1.32-.54a1.93,1.93,0,0,1-1.44.63A1.26,1.26,0,0,1,79,43.06c0-1.13,1.18-1.55,2.71-1.62v-.52c0-.39-.23-.66-.75-.66a3.57,3.57,0,0,0-1.47.46l-.38-.79a4.54,4.54,0,0,1,1.88-.5c1.24,0,1.74.63,1.74,1.51V43a.38.38,0,0,0,.43.42Zm2.51.09a1.22,1.22,0,0,1-1.36-1.4V40.3h-.78v-.76h.78V38.29h1v1.25h1.29v.76H85.33v2.57c0,.38.15.59.48.59a1.17,1.17,0,0,0,.69-.23l.39.65a2.15,2.15,0,0,1-1.22.41m3.87,0a2.43,2.43,0,0,1,0-4.86,2.43,2.43,0,0,1,0,4.86M94.49,6.93l2.36,7.2h0l2.38-7.2h2.25L98,16.55H95.69L92.24,6.93Zm5.58,36.69a3.9,3.9,0,0,1-2.23.67,3.18,3.18,0,0,1,0-6.36,3.65,3.65,0,0,1,2.17.7l-.54.74a2.82,2.82,0,0,0-1.61-.53,2.06,2.06,0,0,0-2.1,2.22,2.06,2.06,0,0,0,2.1,2.32,2.6,2.6,0,0,0,1.23-.3V41.62H97.55v-.78h2.52Zm4-3.15a1.57,1.57,0,0,0-.6-.11c-.5,0-.86.32-1.18.93v2.89h-1V39.54h.93l.08.76a1.5,1.5,0,0,1,1.35-.88,1.6,1.6,0,0,1,.62.11Zm2.73,3.82a2.43,2.43,0,1,1,2.29-2.49,2.24,2.24,0,0,1-2.29,2.49m4.83,0a3.69,3.69,0,0,1-1.88-.52l.43-.73a2.83,2.83,0,0,0,1.44.44c.5,0,.85-.17.85-.56,0-.93-2.62-.35-2.62-2.08,0-.91.8-1.41,1.77-1.41a3.94,3.94,0,0,1,1.67.4l-.38.75a3.14,3.14,0,0,0-1.29-.34c-.43,0-.76.18-.76.55,0,.92,2.6.3,2.6,2.08,0,.93-.76,1.42-1.83,1.42m4.33,0a3.75,3.75,0,0,1-1.89-.52l.44-.73a2.81,2.81,0,0,0,1.45.44c.49,0,.84-.17.84-.56,0-.93-2.62-.35-2.62-2.08,0-.91.8-1.41,1.77-1.41a3.91,3.91,0,0,1,1.67.4l-.38.75a3.18,3.18,0,0,0-1.28-.34c-.45,0-.77.18-.77.55,0,.92,2.6.3,2.6,2.08,0,.93-.76,1.42-1.83,1.42m2.33-13.17h-2.08V23.33H113V21.49h8.44v1.84h-3.19Zm2.46,13.17a2.43,2.43,0,0,1,0-4.86,2.43,2.43,0,0,1,0,4.86m9.39-.11h-.91l-.07-.56a1.94,1.94,0,0,1-1.46.67c-1.11,0-1.85-.87-1.85-2.5s.75-2.36,1.85-2.36a2,2,0,0,1,1.42.65V37.56h1Zm-2-13.06-.6-1.81h-3.66l-.59,1.81H121l3.48-9.63h2.36l3.48,9.63Zm7.65-24.36a4.77,4.77,0,0,1,5,5,5,5,0,1,1-10,0,4.78,4.78,0,0,1,5-5M140,26.26c0,3.07-1.73,4.86-5.29,4.86h-3.17V21.49h3.17c3.43,0,5.29,1.78,5.29,4.77m-6.62,18a2.43,2.43,0,1,1,2.29-2.49,2.24,2.24,0,0,1-2.29,2.49m7.5,0a4.63,4.63,0,0,1-2.37-.66l.51-.83a3.62,3.62,0,0,0,1.86.56c.8,0,1.21-.35,1.21-.85,0-1.38-3.46-.47-3.46-2.81,0-1,.81-1.77,2.19-1.77a4.82,4.82,0,0,1,2.14.5l-.4.84a3.94,3.94,0,0,0-1.7-.41c-.72,0-1.13.36-1.13.82,0,1.38,3.46.44,3.46,2.83,0,1-.77,1.78-2.31,1.78m7.22-.11h-.94l-.07-.56a2.09,2.09,0,0,1-1.47.67c-1.06,0-1.51-.66-1.51-1.67V39.54h1v3.1c0,.51.18.85.72.85a1.58,1.58,0,0,0,1.22-.62V39.54h1Zm2.2,0h-1V37.56h1Zm-4.2-12.9a4.81,4.81,0,0,1-5-5,5,5,0,0,1,10,0,4.8,4.8,0,0,1-5,5"/><polygon class="cls-1" points="37.7 32.45 37.57 32.07 37.44 32.45 37.11 32.45 37.38 32.65 37.26 33.04 37.57 32.78 37.89 33.04 37.76 32.65 38.04 32.45 37.7 32.45"/><polygon class="cls-1" points="37.04 33.19 36.91 33.57 36.59 33.57 36.85 33.77 36.73 34.17 37.04 33.9 37.36 34.17 37.23 33.77 37.51 33.57 37.16 33.57 37.04 33.19"/><polygon class="cls-1" points="36.04 34.43 35.92 34.05 35.79 34.43 35.47 34.43 35.73 34.63 35.6 35.02 35.92 34.76 36.24 35.02 36.11 34.63 36.39 34.43 36.04 34.43"/><polygon class="cls-1" points="34.92 35.16 34.8 34.78 34.67 35.16 34.34 35.16 34.61 35.36 34.48 35.75 34.8 35.48 35.12 35.75 34.99 35.36 35.27 35.16 34.92 35.16"/><polygon class="cls-1" points="33.8 35.75 33.68 35.37 33.55 35.75 33.22 35.75 33.49 35.95 33.36 36.34 33.68 36.08 33.99 36.34 33.86 35.95 34.15 35.75 33.8 35.75"/><path class="cls-1" d="M15.75,23.14h-.48c-.11.29.07.41.2.41a2,2,0,0,1,.28-.41"/><polygon class="cls-1" points="38.16 31.33 38.03 30.95 37.9 31.33 37.58 31.33 37.84 31.53 37.72 31.92 38.03 31.66 38.35 31.92 38.22 31.53 38.5 31.33 38.16 31.33"/><polygon class="cls-1" points="42.48 29.98 42.48 29.97 42.48 29.98 42.48 29.98"/><polygon class="cls-1" points="38.57 30.14 38.43 29.76 38.31 30.14 37.97 30.14 38.24 30.34 38.12 30.73 38.43 30.47 38.75 30.73 38.63 30.34 38.89 30.14 38.57 30.14"/><polygon class="cls-1" points="38.81 28.89 38.69 28.5 38.56 28.89 38.24 28.89 38.5 29.09 38.38 29.48 38.69 29.21 39.01 29.48 38.88 29.09 39.16 28.89 38.81 28.89"/><polygon class="cls-1" points="24.9 35.16 24.77 34.78 24.65 35.16 24.3 35.16 24.59 35.36 24.45 35.75 24.77 35.48 25.09 35.75 24.96 35.36 25.23 35.16 24.9 35.16"/><polygon class="cls-1" points="31.17 36.61 31.04 36.23 30.92 36.61 30.57 36.61 30.85 36.81 30.72 37.2 31.04 36.94 31.36 37.2 31.23 36.81 31.5 36.61 31.17 36.61"/><polygon class="cls-1" points="26.09 35.62 25.96 35.24 25.84 35.62 25.49 35.62 25.77 35.82 25.64 36.21 25.96 35.95 26.28 36.21 26.15 35.82 26.42 35.62 26.09 35.62"/><path class="cls-1" d="M40.61,28.57a2.82,2.82,0,0,0,.14,2c.8,1.27,2.16.55,1.42-.88a2,2,0,0,0-1.56-1.12m1.65,1.71-.41.51.2.33-.13.06-.22-.3-.57.05-.06-.08.59-.06-.28-.46-.61.11,0-.08.62-.11L41,29.72l-.47.13,0-.08.47-.13-.4-.82.07,0,.42.83.27-.52.06,0-.29.54.28.45.42-.68.07.06-.42.71.28.5.44-.57Z"/><polygon class="cls-1" points="28.34 36.55 28.2 36.16 28.08 36.55 27.73 36.55 28.02 36.74 27.89 37.14 28.2 36.87 28.52 37.14 28.39 36.74 28.66 36.55 28.34 36.55"/><polygon class="cls-1" points="27.15 36.08 27.02 35.7 26.89 36.08 26.55 36.08 26.83 36.28 26.7 36.68 27.02 36.41 27.33 36.68 27.21 36.28 27.47 36.08 27.15 36.08"/><path class="cls-1" d="M37.22,26.22V17.06l-14.83,0v9.09c0,6.24,3.43,9.09,7,9.17,3.95.08,8.09-3.19,7.8-9.12M22.74,17.48H36.85v5.4H22.74Zm6.74,17.4c-3.42-.07-6.74-3-6.74-9.19V23.35h14.1v2.38c.27,5.94-3.6,9.24-7.36,9.16"/><path class="cls-1" d="M33.14,26.23c-.58.55-2,1.07-2.49.54-.13-.82.58-.68.82-.4.16-.08.05-.26.05-.37.24-.11.46-.13.51-.4a2,2,0,0,0-.91,0l0,.06v.29l-.08.09h-.28l-.08-.09V25.7a1.08,1.08,0,0,0-.37.34c-.39.9.42,1.37,1.13,1.27,1.22-.14,1.61-.89,2.64-1.33,2.23-.71,2,1.82.69,1.77l-5,0c-.64,0-1.26-.73-1.42-1.49a1,1,0,0,0-.3-.78l.08-.27-1,0L26,25.52c0,.28,0,.21.06.41l.24.07a.28.28,0,0,1,0,.44l-.18.14c0,.1,0,.38.07.41l.27-.21c.17,0,.47.32.37.54a1.24,1.24,0,0,1-.55.46L24.4,27.7c-.18-.08-.49-.62-.56-.46a2.66,2.66,0,0,0-.11.61l1.46.51.21.38.73-.13h.09v-.28l.08-.09h.29l.07.09v.28l-.07.09h0a.81.81,0,0,1,.26.91c-.16.59-1,1.5-1.65,1.49l-.05.44H26l.28-.39a3,3,0,0,0,1.05-.66c0-.29.63-.68,1.07-.59l.79.22a2.46,2.46,0,0,1,1.59-.42l.95.06c-.17.63-.92,1.15-1.49,1.51,0,.29.33.24.6.2l.27-.11.63-.67c.32-.29.78-.43,1-.15a2.47,2.47,0,0,1,1.71-.13c.37.13.38.44.17.61h.31l.08.09v.29l-.08.08h-.29l-.07-.08V31.1l0-.06a.63.63,0,0,1-.38.09c-.2.28-.06.3.16.39l.65,0,.12-.48L35,29.92l-1-.39,0-1.19c1-.27,2.65-.48,2.31-1.94-.53-1.15-2.24-1.1-3.11-.17m-5.69,3.18-.07.08h-.29L27,29.41v-.29l.08-.09h.29l.07.09Zm0-1.46-.07.09h-.29L27,28v-.28l.08-.09h.29l.07.09Zm0-1.51-.07.08h-.29L27,26.44v-.29l.08-.09h.29l.07.09Zm.22.66v-.29l.08-.09H28l.07.09v.29l-.07.09h-.29Zm.58,1.58-.08.09h-.29l-.07-.09v-.29l.07-.08h.29l.08.08Zm.22-.73v-.28l.07-.09h.29l.07.09V28l-.07.09h-.29Zm.5,1.46-.07.08h-.29l-.08-.08v-.29l.08-.09h.29l.07.09Zm.73-.73-.08.09h-.29l-.07-.09v-.29l.07-.08h.29l.08.08Zm.66.73-.08.08H30l-.07-.08v-.29L30,29h.29l.08.09Zm.79-.8-.08.09h-.28l-.08-.09v-.28l.08-.09h.28l.08.09Zm1.38,1.46-.07.08h-.29l-.07-.08v-.29l.07-.09h.29l.07.09Zm.07-1.46-.07.09h-.29l-.08-.09v-.28l.08-.09h.29l.07.09Zm.79.8-.07.08H33L33,29.41v-.29L33,29h.29l.07.09Zm1,.63.07-.09h.29l.08.09v.29l-.08.09h-.29l-.07-.09Z"/><polygon class="cls-1" points="29.73 36.61 29.59 36.23 29.47 36.61 29.12 36.61 29.4 36.81 29.27 37.2 29.59 36.94 29.91 37.2 29.78 36.81 30.05 36.61 29.73 36.61"/><polygon class="cls-1" points="30.23 20.36 30.04 19.8 29.86 20.36 29.36 20.36 29.77 20.64 29.58 21.21 30.04 20.83 30.5 21.21 30.32 20.64 30.7 20.36 30.23 20.36"/><polygon class="cls-1" points="32.55 36.28 32.42 35.9 32.29 36.28 31.97 36.28 32.23 36.48 32.11 36.87 32.42 36.61 32.74 36.87 32.61 36.48 32.89 36.28 32.55 36.28"/><path class="cls-1" d="M16.63,21.67h.58l-.16-.39.06-.11.22.5h0l.34-.43-.22-.62.09-.12.22.62.37-.47L18,20.21l.12-.07.12.39L18.7,20l.1.1-.44.57.29.15,0,.13-.32-.18-.4.49.42.15-.11.14-.41-.16-.26.33h.79A3.67,3.67,0,0,0,19,19.84l-.36-.1a3.13,3.13,0,0,0-2,1.93"/><path class="cls-1" d="M16.15,21.38v.29h.44a5.18,5.18,0,0,0-.05-2.5l-.38-.1v.53l.36-.12.05.13-.41.13v.7l.47-.23v.19l-.47.21v.63l.45-.2,0,.17Z"/><path class="cls-1" d="M21.53,41.93l.23.06h0a.4.4,0,0,0,.26-.14.73.73,0,0,0,.18-.3,1.27,1.27,0,0,0,.07-.38,1,1,0,0,0-.09-.33A.51.51,0,0,0,22,40.6a.41.41,0,0,0-.43,0,.81.81,0,0,0-.3.43h0a.84.84,0,0,0-.05.34.69.69,0,0,0,.09.34.65.65,0,0,0,.22.24m-.05-.83c.05-.16.12-.27.2-.29l.1,0,.12,0L22,41l.05.22,0,.26a.6.6,0,0,1-.19.28h-.23a.43.43,0,0,1-.18-.24.77.77,0,0,1,0-.36"/><path class="cls-1" d="M18.25,19.64l-1.4-.39a2,2,0,0,1,0,1.54,1.87,1.87,0,0,1,1.42-1.15"/><path class="cls-1" d="M16.42,23.15a1.59,1.59,0,0,1,.28.42c.15.13.51-.1.26-.42Z"/><path class="cls-1" d="M16,21.67v-.29l-.55-.22,0-.14.57.23v-.64l-.62-.3v-.16l.62.29v-.66l-.43-.21,0-.16.38.21V19L15.77,19a2.88,2.88,0,0,0-.4,2.71Z"/><path class="cls-1" d="M17.24,17.07l0,0-.21-.53.07-.1.22.53.36-.46-.22-.62.09-.12.22.61.37-.47L18,15.46l.12-.08.12.4.45-.58.1.1-.44.57.29.15,0,.13L18.28,16l-.39.49.41.15-.11.14-.4-.16-.36.45.39.15-.1.1.38.18A3.69,3.69,0,0,0,19,15a2.37,2.37,0,0,0-2.22,1.81l.51.24"/><path class="cls-1" d="M12.81,15a3.21,3.21,0,0,0,.83,2l.09-.06-.08-.29h0l-.1-.1.08,0-.15-.5-.14,0L13.28,16h.16l-.13-.46-.11-.12.06,0,0-.16s.77.34,1.71.78a2.65,2.65,0,0,0-2.11-1"/><path class="cls-1" d="M12.75,19.77a3.13,3.13,0,0,0,.71,1.9h1l-.28-.3-.65.1-.1-.1.65-.12-.4-.44-.45.07-.06-.13.41-.05-.49-.55.12-.07.48.53.19-.26.13.07-.24.29.42.47.22-.38.11.13-.22.37.33.37h.08l.18-.3.1.13-.13.17h.44C14.66,20,14,20,12.75,19.77"/><path class="cls-1" d="M16.07,16.49v-.64l-.62-.3V15.4l.63.28V15l-.43-.2,0-.16.38.21v-.81h.15v.78l.37-.12.05.14-.42.13v.69l.47-.22v.19l-.47.2v.63l.45-.19,0,.17-.39.15.41.19c.22-1.44.11-2.48-.45-2.94a2.39,2.39,0,0,0-.92,2.3l.43.2Z"/><polygon class="cls-1" points="21.54 39.36 21.52 39.37 21.59 39.42 21.54 39.36"/><path class="cls-1" d="M25.32,38.93l.11,0-.35.91.23.09.5-1.32-.16-.06,0,0-.19.1a1.08,1.08,0,0,1-.27.05h0l-.1.23h.27Z"/><path class="cls-1" d="M22.5,40a16.35,16.35,0,0,0,2.24,1.14l-.95-1-.45-.41a.42.42,0,0,1-.29.47A1.43,1.43,0,0,0,22.5,40"/><path class="cls-1" d="M19.43,37.55a8.42,8.42,0,0,0,.59.61l.46-.12-.41-.51-.47.1-.06-.15.43-.07-.51-.64.12-.09.5.61.2-.32.13.07-.24.36.43.55.22-.48.12.16-.24.45.4.49.22-.43.09.14-.23.4.38.47.13-.39.08.15-.12.36.35.43.27.17A1.34,1.34,0,0,1,23,40c.21,0,.35-.45-.13-.5l.07-.17L22.56,39l.55-.68a4.21,4.21,0,0,0-.76-2.55c-.49.16-1.24,1.6-.44,3.2-.82-1.55-1.65-2.48-2.46-2.48a2,2,0,0,0,0,1m2.39,1.17,0-.17.46.32v-.54l-.5-.28,0-.13.51.28v-.58l-.56-.35v-.15l.56.34v-.6l-.38-.24.05-.14.33.24V36l.14,0v.72l.32-.07.05.14-.37.06v.63l.42-.15v.18l-.42.13v.57l.4-.13,0,.16-.38.1v.55l.3-.17,0,.15-.28.15v.5l-.13.1V39Z"/><path class="cls-1" d="M26.08,39.23h.05l.1,0-.3.93.23.08.44-1.36-.17,0h0l-.17.12A1.87,1.87,0,0,1,26,39h0l-.07.25h.07Z"/><polygon class="cls-1" points="23.91 34.23 23.78 33.85 23.66 34.23 23.31 34.23 23.59 34.43 23.46 34.83 23.78 34.56 24.1 34.83 23.97 34.43 24.24 34.23 23.91 34.23"/><path class="cls-1" d="M21.45,39.24l-.38-.46-.24.07.53.41Z"/><path class="cls-1" d="M20.44,41.23l.14-1.53-.09-.07v0l-.07-.05-.92,1,.2.15L20,40.4l.32.23-.05.45Zm-.32-1,.2-.19,0-.06,0,.12,0,.27Z"/><polygon class="cls-1" points="21.16 40.37 21.46 40.55 21.55 40.33 20.75 39.83 20.67 40.05 20.96 40.24 20.57 41.3 20.77 41.43 21.16 40.37"/><path class="cls-1" d="M20.15,38.27c.18.17.37.33.56.49l.28-.09-.4-.5Z"/><polygon class="cls-1" points="38.44 37.47 38.44 37.47 38.44 37.47 38.44 37.47"/><polygon class="cls-1" points="33.96 16.21 34.28 15.95 34.59 16.21 34.47 15.82 34.73 15.62 34.41 15.62 34.28 15.24 34.15 15.62 33.81 15.62 34.09 15.82 33.96 16.21"/><polygon class="cls-1" points="35.08 16.21 35.4 15.95 35.72 16.21 35.59 15.82 35.85 15.62 35.53 15.62 35.4 15.24 35.28 15.62 34.93 15.62 35.21 15.82 35.08 16.21"/><polygon class="cls-1" points="32.97 16.21 33.28 15.95 33.6 16.21 33.48 15.82 33.74 15.62 33.42 15.62 33.28 15.24 33.16 15.62 32.82 15.62 33.1 15.82 32.97 16.21"/><polygon class="cls-1" points="37.19 16.21 37.51 15.95 37.83 16.21 37.7 15.82 37.97 15.62 37.64 15.62 37.51 15.24 37.39 15.62 37.04 15.62 37.32 15.82 37.19 16.21"/><polygon class="cls-1" points="36.13 16.21 36.45 15.95 36.77 16.21 36.65 15.82 36.91 15.62 36.59 15.62 36.45 15.24 36.33 15.62 35.99 15.62 36.27 15.82 36.13 16.21"/><polygon class="cls-1" points="28.48 16.21 28.8 15.95 29.12 16.21 28.99 15.82 29.25 15.62 28.93 15.62 28.8 15.24 28.68 15.62 28.33 15.62 28.61 15.82 28.48 16.21"/><polygon class="cls-1" points="29.6 16.21 29.92 15.95 30.24 16.21 30.11 15.82 30.38 15.62 30.05 15.62 29.92 15.24 29.8 15.62 29.45 15.62 29.73 15.82 29.6 16.21"/><polygon class="cls-1" points="38.25 28.23 38.57 27.96 38.88 28.23 38.76 27.83 39.02 27.63 38.7 27.63 38.57 27.25 38.45 27.63 38.1 27.63 38.38 27.83 38.25 28.23"/><polygon class="cls-1" points="31.91 16.21 32.23 15.95 32.55 16.21 32.42 15.82 32.69 15.62 32.37 15.62 32.23 15.24 32.11 15.62 31.76 15.62 32.04 15.82 31.91 16.21"/><polygon class="cls-1" points="30.79 16.21 31.11 15.95 31.42 16.21 31.3 15.82 31.56 15.62 31.24 15.62 31.11 15.24 30.98 15.62 30.64 15.62 30.92 15.82 30.79 16.21"/><polygon class="cls-1" points="38.25 18.66 38.57 18.39 38.88 18.66 38.76 18.26 39.02 18.06 38.7 18.06 38.57 17.68 38.45 18.06 38.1 18.06 38.38 18.26 38.25 18.66"/><polygon class="cls-1" points="38.25 27.04 38.57 26.77 38.88 27.04 38.76 26.65 39.02 26.45 38.7 26.45 38.57 26.06 38.45 26.45 38.1 26.45 38.38 26.65 38.25 27.04"/><polygon class="cls-1" points="38.25 19.78 38.57 19.51 38.88 19.78 38.76 19.39 39.02 19.19 38.7 19.19 38.57 18.8 38.45 19.19 38.1 19.19 38.38 19.39 38.25 19.78"/><polygon class="cls-1" points="27.36 16.21 27.68 15.95 27.99 16.21 27.87 15.82 28.13 15.62 27.81 15.62 27.68 15.24 27.55 15.62 27.21 15.62 27.49 15.82 27.36 16.21"/><polygon class="cls-1" points="38.25 17.4 38.57 17.14 38.88 17.4 38.76 17.01 39.02 16.81 38.7 16.81 38.57 16.43 38.45 16.81 38.1 16.81 38.38 17.01 38.25 17.4"/><polygon class="cls-1" points="38.25 16.21 38.57 15.95 38.88 16.21 38.76 15.82 39.02 15.62 38.7 15.62 38.57 15.24 38.45 15.62 38.1 15.62 38.38 15.82 38.25 16.21"/><polygon class="cls-1" points="38.25 21.03 38.57 20.76 38.88 21.03 38.76 20.64 39.02 20.44 38.7 20.44 38.57 20.06 38.45 20.44 38.1 20.44 38.38 20.64 38.25 21.03"/><polygon class="cls-1" points="38.25 22.15 38.57 21.89 38.88 22.15 38.76 21.76 39.02 21.56 38.7 21.56 38.57 21.18 38.45 21.56 38.1 21.56 38.38 21.76 38.25 22.15"/><polygon class="cls-1" points="38.25 25.79 38.57 25.52 38.88 25.79 38.76 25.39 39.02 25.19 38.7 25.19 38.57 24.81 38.45 25.19 38.1 25.19 38.38 25.39 38.25 25.79"/><polygon class="cls-1" points="38.25 24.59 38.57 24.33 38.88 24.59 38.76 24.2 39.02 24 38.7 24 38.57 23.62 38.45 24 38.1 24 38.38 24.2 38.25 24.59"/><polygon class="cls-1" points="38.25 23.41 38.57 23.14 38.88 23.41 38.76 23.02 39.02 22.81 38.7 22.81 38.57 22.43 38.45 22.81 38.1 22.81 38.38 23.02 38.25 23.41"/><polygon class="cls-1" points="20.62 27.04 20.94 26.77 21.26 27.04 21.14 26.65 21.4 26.45 21.08 26.45 20.94 26.06 20.82 26.45 20.47 26.45 20.76 26.65 20.62 27.04"/><polygon class="cls-1" points="23.45 33.31 23.12 33.31 22.99 32.93 22.87 33.31 22.52 33.31 22.8 33.51 22.67 33.9 22.99 33.63 23.31 33.9 23.18 33.51 23.45 33.31"/><polygon class="cls-1" points="20.62 25.79 20.94 25.52 21.26 25.79 21.14 25.39 21.4 25.19 21.08 25.19 20.94 24.81 20.82 25.19 20.47 25.19 20.76 25.39 20.62 25.79"/><polygon class="cls-1" points="20.62 24.59 20.94 24.33 21.26 24.59 21.14 24.2 21.4 24 21.08 24 20.94 23.62 20.82 24 20.47 24 20.76 24.2 20.62 24.59"/><polygon class="cls-1" points="26.23 16.21 26.56 15.95 26.87 16.21 26.75 15.82 27.01 15.62 26.69 15.62 26.56 15.24 26.43 15.62 26.09 15.62 26.36 15.82 26.23 16.21"/><polygon class="cls-1" points="20.62 28.23 20.94 27.96 21.26 28.23 21.14 27.83 21.4 27.63 21.08 27.63 20.94 27.25 20.82 27.63 20.47 27.63 20.76 27.83 20.62 28.23"/><polygon class="cls-1" points="22.52 32.59 22.79 32.39 22.46 32.39 22.33 32 22.21 32.39 21.86 32.39 22.14 32.59 22.01 32.98 22.33 32.71 22.64 32.98 22.52 32.59"/><polygon class="cls-1" points="21.99 31.46 22.26 31.26 21.93 31.26 21.8 30.88 21.68 31.26 21.33 31.26 21.61 31.46 21.48 31.86 21.8 31.59 22.12 31.86 21.99 31.46"/><polygon class="cls-1" points="20.62 22.15 20.94 21.89 21.26 22.15 21.14 21.76 21.4 21.56 21.08 21.56 20.94 21.18 20.82 21.56 20.47 21.56 20.76 21.76 20.62 22.15"/><polygon class="cls-1" points="20.94 29.15 21.26 29.41 21.14 29.02 21.4 28.82 21.08 28.82 20.94 28.44 20.82 28.82 20.47 28.82 20.75 29.02 20.62 29.41 20.94 29.15"/><polygon class="cls-1" points="21.34 30.4 21.66 30.67 21.53 30.28 21.8 30.08 21.47 30.08 21.34 29.69 21.22 30.08 20.87 30.08 21.15 30.28 21.02 30.67 21.34 30.4"/><polygon class="cls-1" points="20.62 23.41 20.94 23.14 21.26 23.41 21.14 23.02 21.4 22.81 21.08 22.81 20.94 22.43 20.82 22.81 20.47 22.81 20.76 23.02 20.62 23.41"/><polygon class="cls-1" points="22.93 16.21 23.25 15.95 23.57 16.21 23.45 15.82 23.71 15.62 23.39 15.62 23.25 15.24 23.13 15.62 22.79 15.62 23.07 15.82 22.93 16.21"/><polygon class="cls-1" points="23.99 16.21 24.31 15.95 24.63 16.21 24.5 15.82 24.77 15.62 24.44 15.62 24.31 15.24 24.19 15.62 23.84 15.62 24.12 15.82 23.99 16.21"/><polygon class="cls-1" points="21.75 16.21 22.07 15.95 22.38 16.21 22.26 15.82 22.52 15.62 22.2 15.62 22.07 15.24 21.94 15.62 21.6 15.62 21.88 15.82 21.75 16.21"/><polygon class="cls-1" points="25.11 16.21 25.43 15.95 25.75 16.21 25.62 15.82 25.89 15.62 25.56 15.62 25.43 15.24 25.31 15.62 24.96 15.62 25.25 15.82 25.11 16.21"/><polygon class="cls-1" points="20.62 19.78 20.94 19.51 21.26 19.78 21.14 19.39 21.4 19.19 21.08 19.19 20.94 18.8 20.82 19.19 20.47 19.19 20.76 19.39 20.62 19.78"/><polygon class="cls-1" points="20.62 18.66 20.94 18.39 21.26 18.66 21.14 18.26 21.4 18.06 21.08 18.06 20.94 17.68 20.82 18.06 20.47 18.06 20.76 18.26 20.62 18.66"/><polygon class="cls-1" points="20.62 21.03 20.94 20.76 21.26 21.03 21.14 20.64 21.4 20.44 21.08 20.44 20.94 20.06 20.82 20.44 20.47 20.44 20.76 20.64 20.62 21.03"/><polygon class="cls-1" points="20.62 17.4 20.94 17.14 21.26 17.4 21.14 17.01 21.4 16.81 21.08 16.81 20.94 16.43 20.82 16.81 20.47 16.81 20.76 17.01 20.62 17.4"/><polygon class="cls-1" points="20.62 16.21 20.94 15.95 21.26 16.21 21.14 15.82 21.4 15.62 21.08 15.62 20.94 15.24 20.82 15.62 20.47 15.62 20.76 15.82 20.62 16.21"/><path class="cls-1" d="M18.4,40.37l.93,1.73A19.06,19.06,0,0,0,23,44.56l-.46-1.09a18.12,18.12,0,0,1-4.15-3.1"/><path class="cls-1" d="M43.38,36.51a2.62,2.62,0,0,0,1.45-1.24,2.12,2.12,0,0,0-1.89-.33c-1.56.58-1,1.78.44,1.57m-.83-1.33.09,0-.11.59.53-.14.06-.62.08,0-.06.63.6-.15v-.49h.09v.49l.9-.15v.07l-.91.17.43.41-.06,0-.44-.43-.51.14.54.59-.07,0-.57-.6-.55.13.41.58h-.14l-.37-.54-.37.11,0-.14.35-.13Z"/><path class="cls-1" d="M46,26.5a2.58,2.58,0,0,0,.64-1.84,2.3,2.3,0,0,0-1.88.7c-1,1.31.19,2.13,1.24,1.14m-1.38-.72.06-.08.22.56.37-.4L45,25.3l.06-.06.28.57.43-.44L45.47,25l.06,0,.26.42.68-.6,0,.06-.68.62.58.13,0,.07-.59-.14-.37.39.77.22,0,.08-.79-.22-.41.41.66.28-.12.07-.6-.27-.26.28-.09-.1.23-.29Z"/><path class="cls-1" d="M43.29,31.36l-.14.82c.21-.18.55-.53.76-.7a1.34,1.34,0,0,1,0-.46,1,1,0,0,1-.59.34"/><path class="cls-1" d="M37.44,38.56l-.1-.36L36.8,38l0-.09.57.16-.08-.53-.6-.13,0-.08.62.12-.09-.6-.48-.06v-.08l.48.06-.06-.92h.08l.07.92.45-.38,0,.06-.47.39.09.53.64-.47,0,.07-.65.5.07.57.62-.35v.13l-.58.32.06.36c.38-.09.7-.53.63-1.28a2,2,0,0,0-1-1.63,2.51,2.51,0,0,0-.63,1.91c.09.69.5,1,.89,1"/><path class="cls-1" d="M37.9,38.71v1.08c.16-.23.31-.5.48-.74a1.26,1.26,0,0,1-.15-.72,1.1,1.1,0,0,1-.33.38"/><path class="cls-1" d="M42.88,26.21a.69.69,0,0,1-.09.38l.56.92c0-.29,0-.6,0-.88a.72.72,0,0,1-.49-.42"/><path class="cls-1" d="M44.14,26.37a.78.78,0,0,1-.46.28v.83c.18-.21.36-.47.55-.68a.77.77,0,0,1-.09-.42Z"/><path class="cls-1" d="M40.88,34.64a1.43,1.43,0,0,1-.28.38V36.1c.17-.24.32-.51.48-.74a.87.87,0,0,1-.2-.72"/><polygon class="cls-1" points="39.36 39.75 39.14 39.9 39.95 41.07 40.7 40.57 40.56 40.35 40.02 40.72 39.36 39.75"/><path class="cls-1" d="M37.57,39.53c0-.24,0-.53,0-.77a1.55,1.55,0,0,1-.35-.07l.34.39-.28.25Z"/><path class="cls-1" d="M37.53,40.07l-.65-.4-.6.53-1,1a17.57,17.57,0,0,0,2.21-1.11"/><path class="cls-1" d="M38.86,41.52l-.17,0-.13,0a.68.68,0,0,1-.15-.19L38,40.65l-.22.14.41.69a1.38,1.38,0,0,0,.22.27h0l.23.07h0a.73.73,0,0,0,.33-.1.61.61,0,0,0,.24-.24.54.54,0,0,0,0-.28,1.29,1.29,0,0,0-.13-.31l-.42-.7-.23.14.42.7c.1.16.11.24.1.29s-.07.12-.17.19"/><path class="cls-1" d="M42,35.42a1,1,0,0,1-.67.11l-.44.71c.26-.08.7-.28,1-.36a1.37,1.37,0,0,1,.15-.46Z"/><polygon class="cls-1" points="42.88 26.2 42.88 26.21 42.88 26.21 42.88 26.2"/><path class="cls-1" d="M38.63,39.23l-.14.23.32-.23Z"/><path class="cls-1" d="M29.92,39.6l-.13-.14-.21-.07-.26.07a.47.47,0,0,0-.18.24,1.18,1.18,0,0,0-.07.39.93.93,0,0,0,.12.57.41.41,0,0,0,.32.17h0a.47.47,0,0,0,.26-.07l.18-.23a1.61,1.61,0,0,0,.06-.4v-.32Zm-.25.9-.15.08-.16-.1a.74.74,0,0,1,0-.38.67.67,0,0,1,.1-.39l.15-.07.15.09a1.08,1.08,0,0,1,0,.39.69.69,0,0,1-.09.38"/><path class="cls-1" d="M45.56,31.54a2,2,0,0,0,.94-1.71,2.33,2.33,0,0,0-2,.39c-1.22,1.12-.14,2.05,1,1.32m-1.25-.95.08-.06.12.58.43-.33-.17-.59.07-.05.17.6.5-.36-.18-.46.08,0,.17.45.78-.48,0,.07-.78.5.55.22,0,.07-.57-.24-.42.33.72.34,0,.07-.75-.34-.47.33.61.39-.13,0-.55-.36-.3.23-.07-.12.27-.25Z"/><polygon class="cls-1" points="38.23 38.33 38.23 38.33 38.23 38.33 38.23 38.33"/><path class="cls-1" d="M40.61,24.41a5.7,5.7,0,0,0,.11,1.08l.44-.2-.53-.75.06,0,.55.76.19-.57.06,0-.19.57.35.4L42,25,42,25l-.3.77.37.44.34-.62,0,.12-.32.57.25.29-.11.08L42,26.4l-.55.14-.07-.07.57-.15-.35-.41-.58.21L41,26.05l.6-.22-.4-.47-.44.2,0,0a2.78,2.78,0,0,0,.35.86c1.12,1.21,2.23.19,1.26-1.11a2.2,2.2,0,0,0-1.72-.85"/><path class="cls-1" d="M39.05,39.05l.41-.32-.53-.11-.2.32-.13-.08.2-.32-.3-.46,0-.09.33.46.28-.44-.39-.48,0-.07.39.46.3-.48L39.12,37l0-.05.41.4.57-.88.06,0-.55.89.55.13v.08l-.58-.15-.31.52.65.17,0,.06-.68-.13-.23.43.56.1.3-.25,0,0a2.08,2.08,0,0,0,.28-1.89,2,2,0,0,0-1.57,1.14c-.54,1-.16,1.62.44,1.46"/><path class="cls-1" d="M40.91,33.56a2,2,0,0,0-1-1.62,3.52,3.52,0,0,0-.63,1.91c.33,1.61,1.8,1.32,1.66-.29m-.77,1.24-.09-.36-.54-.17,0-.1.57.17L40,33.81l-.61-.13V33.6l.62.12-.09-.61-.48,0V33l.49.06-.06-.92h.08l.07.93.45-.38,0,.06-.47.39.09.52.64-.47,0,.08-.66.5.08.57.62-.35,0,.13-.57.32.06.37Z"/><path class="cls-1" d="M42.53,30.59h0a2.06,2.06,0,0,1-.12.57l.41,1c.07-.28.1-.58.17-.86a1,1,0,0,1-.46-.7"/><path class="cls-1" d="M44.14,30a2.11,2.11,0,0,0-.46-1.86,2.05,2.05,0,0,0-1,1.65c-.17,1.65,1.14,1.8,1.48.21m-1.43.23.48.3.09-.51-.55-.3v-.08l.55.28.09-.56-.5-.25v0l.52.21.2-1,.07,0-.16,1,.55-.08,0,.07-.59.08-.09.6.67-.09V30l-.68.13,0,.49.57-.12-.05.12-.57.11-.06.37-.15,0,.06-.38-.44-.31Z"/><path class="cls-1" d="M46.41,15.36l0,.06-.3.26L46,16.1l.31.07,0,.06-.3-.06-.13.47.24.07,0,.08-.24-.07-.07.28.13.09,0,0a2.76,2.76,0,0,0,.64-1.84h-.31l-.09.32Z"/><path class="cls-1" d="M42.91,20.4l.58.2V20L43,19.87v-.05a2.71,2.71,0,0,0-.08.78,1.64,1.64,0,0,0,.34,1h.26v-.28L43,21.09V21l.52.21v-.52l-.58-.2Z"/><path class="cls-1" d="M43,19.81l.55.12,0-.92-.2.06a1.92,1.92,0,0,0-.38.74"/><path class="cls-1" d="M42.79,21.18a2.27,2.27,0,0,1,.05.42l.16,0a2.15,2.15,0,0,1-.21-.4Z"/><path class="cls-1" d="M41,19.7l-.36.11a2.94,2.94,0,0,0,.48,1.81H42l-.33-.39-.59.21,0-.07.59-.21-.39-.48-.44.21,0-.07.44-.21-.53-.75.07,0,.55.75.18-.56.07,0-.2.58.35.4.3-.74.08,0-.3.77.36.45.34-.62.06.12-.32.57h.46a1.49,1.49,0,0,0-.36-1.1A2.19,2.19,0,0,0,41,19.7"/><path class="cls-1" d="M42.52,20.42a1.57,1.57,0,0,1,.14.29l0-.21A2.78,2.78,0,0,1,43,19.18l-1.49.43a1.9,1.9,0,0,1,1.06.81"/><path class="cls-1" d="M42.14,17.13,42,17l-.55.14-.07-.07.57-.16-.35-.4-.58.2L41,16.67l.6-.21-.4-.47-.44.2,0-.07.45-.2-.53-.75.06,0,.55.75.19-.56.06,0-.19.57.35.4.3-.74.07.05-.3.77.36.44.35-.62,0,.12-.32.57.13.14.27-.13a1.53,1.53,0,0,0-.36-1.11A2.06,2.06,0,0,0,41.06,15l-.06.05L40.67,15h-.19a3.76,3.76,0,0,0,.46,1.79,1.77,1.77,0,0,0,.69.63c.17-.08.31-.17.51-.26"/><path class="cls-1" d="M45.4,15.58l.07,0,0,0,.75-.34a2.13,2.13,0,0,0-1.49.69l.66-.31Z"/><path class="cls-1" d="M42.61,34.64a2.11,2.11,0,0,0,.28-1.89,2.06,2.06,0,0,0-1.57,1.14c-.79,1.46.37,2.09,1.29.75m-1.36-.34.33.45.27-.43-.39-.49,0-.07.39.47.29-.49-.36-.41,0,0,.41.39.57-.87.06.05-.54.88.54.14v.07l-.57-.15-.31.52.65.17,0,.07L42,34.41l-.23.44.57.1-.1.09-.56-.11-.2.32-.13-.08.2-.32-.29-.46Z"/><path class="cls-1" d="M20.1,36.44c.39-.24-.05-.53-.05-.54-.22-.09-.46.17-.46.3l-.16,0a.76.76,0,0,1,.15-.26l-.09.06.08-.61L19.18,35v-.18l.41.38.07-.54-.45-.33v-.13l.46.34.07-.58-.5-.42V33.4l.51.42.07-.6-.35-.29.06-.13.31.28.08-.73.14,0L20,33.1l.33,0,0,.14-.37,0-.08.62.43-.09,0,.17-.43.08-.07.56.41-.07,0,.16-.39,0-.07.55.32-.12-.05.14-.29.11-.07.47a.49.49,0,0,1,.51-.08,4.4,4.4,0,0,0-.05-3.72,2.62,2.62,0,0,0-.9,3.22c-.62-1.63-1.38-2.59-2.12-2.78-.3.63-.45,2,1.21,3.29-1.71-1.34-2.19-1-3.52-.54a4.08,4.08,0,0,0,3.73,1.55.52.52,0,0,1,.16-.34l-.47-.14-.4.32-.17,0,.44-.34-.52-.16-.41.38-.13,0,.42-.4-.56-.17-.5.42-.14,0,.49-.43-.57-.18-.35.3-.11-.09.33-.25-.71-.21.06-.13.68.21,0-.33h.14l-.05.37.6.19V35.3l.17.05v.43l.55.17v-.42l.14.07,0,.39.53.16L18,35.81l.14.07,0,.31.56.17a.8.8,0,0,1,.45-.06l.06-.1a1.22,1.22,0,0,1,.81.24m-1-.22-.35-.59-.54,0-.13-.15.59,0L18.37,35l-.59.1L17.7,35l.6-.1L18,34.33l-.69.06-.09-.13.69-.08-.34-.56-.48.05,0-.17h.43l-.41-.7.13-.08.41.68.24-.3.12.1-.29.32.35.6.29-.44.1.16-.3.42.33.54.28-.4.07.16-.28.36.31.52.18-.37.06.15-.16.34.36.6Z"/><polygon class="cls-1" points="19.1 39.29 18.94 40.1 19.04 40.19 19.04 40.22 19.05 40.19 19.12 40.26 19.63 39.69 19.3 40.39 19.48 40.55 20.07 39.33 19.95 39.23 19.92 39.22 19.82 39.13 19.23 39.79 19.21 39.81 19.22 39.78 19.42 38.8 19.31 38.71 19.28 38.69 19.16 38.6 18.59 39.81 18.78 39.97 19.1 39.29"/><path class="cls-1" d="M9.1,0H0V43.38a8,8,0,0,0,8,8H59.57V0ZM38.29,8.25,40,8.18l-4.06,5.75H34.05l3.52-7.2ZM30.48,38c-5.34.38-10.94-3.28-10.86-11.82V14.55H39.9V26.32c.71,7.19-4.22,11.35-9.42,11.71M31.69,4.88,32.93,6.2l1.41-.76L32.1,14H30.72ZM27,6.14l1.24-1.32,1,9.1H27.8L25.56,5.37ZM21.54,8.25l.73-1.52,3.51,7.2H23.92L19.85,8.18ZM16.72,12l.1-1.87,3.83,3.63H19.16v.92a1.2,1.2,0,0,0-.69.09l-3.35-2.46ZM37.87,46.83l-1.15-2.15.54-1.29a19.57,19.57,0,0,1-6.41,1.43l-.17-2.41.89-1a9,9,0,0,1-2.93,0l.78.89-.17,2.4a19.9,19.9,0,0,1-6.41-1.4l.5,1.29L22.2,46.78a20.86,20.86,0,0,1-9-7.76l1.9.62.17-1.71a29.4,29.4,0,0,0,3.5,3.75l-1.32-2.49,1.8-1.79c-.07.08-.05-.08-.08-.25-.2.14-.61.2-.68-.19-1.22.34-3.53-.42-4-1.82A3.07,3.07,0,0,1,17,34.66a3.21,3.21,0,0,1-.28-1.72.38.38,0,0,1-.47-.46c-1.27,0-3.21-1.32-3.32-2.87a2.86,2.86,0,0,1,2.62.42,3.64,3.64,0,0,1,.09-1.72.4.4,0,0,1-.33-.57c-1.24-.27-3-1.78-2.75-3.42A2.82,2.82,0,0,1,15,25a2.83,2.83,0,0,1,.32-1.29c-.21-.06-.32-.25-.21-.54H12.86L11.8,21.67h1.39a2.42,2.42,0,0,1-.61-2.12,2.58,2.58,0,0,1,2.38.84A2.92,2.92,0,0,1,15.43,19c-.1,0-.08-.07-.17-.15l-3-.82,1.14-.81a2.51,2.51,0,0,1-.78-2.39,2.68,2.68,0,0,1,2.48.95,2.13,2.13,0,0,1,1.07-2.16,2.21,2.21,0,0,1,.77,2.3,1.87,1.87,0,0,1,2.12-1,3.08,3.08,0,0,1-.74,2.71l.73.35v1.94s-.09,1.39-.55,1.8h.65v1.49H17.1c.24.26,0,.77-.36.62a2.43,2.43,0,0,1,.11,1.53A1.93,1.93,0,0,1,19,24a3.38,3.38,0,0,1-1.77,3.62.39.39,0,0,1-.41.64,2,2,0,0,1,.49,1.29,2,2,0,0,1,1.83-1.43c.87,1.43-.32,3.49-1,3.88.31.19.09.74-.3.7a3.07,3.07,0,0,1,.95,1.17c.07-.92.49-1.84,1.25-2a3.7,3.7,0,0,1,.23,4c.32.08.26.63,0,.77a3.33,3.33,0,0,1,1.14,1.11c-.06-.93.23-2,1-2.22a3.88,3.88,0,0,1,1,2.59l.72-.92s.11.06.25.19c3,2.1,8.14,1.91,11.62-.13l.53.61a2.53,2.53,0,0,1,.77-2.49,2.39,2.39,0,0,1,1.23,2v.12l0-.08a2,2,0,0,1,1.64-1.1l-.82-.49c-.11-.09,0-.41.24-.42l.75.46c0-.25,0-.53,0-.78a1.14,1.14,0,0,1-1-.67,2.82,2.82,0,0,1,.66-2.74,2.3,2.3,0,0,1,1.21,2v.16h0l.07-.15a2.07,2.07,0,0,1,1.68-1.09l-1.35-.22c-.13,0-.18-.36.07-.48l.86.15c-.09-.23-.23-.48-.32-.7a1.1,1.1,0,0,1-1.21-.24,2.87,2.87,0,0,1-.4-2.83,2.43,2.43,0,0,1,1.9,1.42,2.29,2.29,0,0,1,.09.28v-.24A2.08,2.08,0,0,1,43.72,28a2.13,2.13,0,0,1,.6,2.08l-.06.21h0l.12-.13a2.22,2.22,0,0,1,2.3-.43,2,2,0,0,1-1.42,2.17,1.78,1.78,0,0,1-1.14-.1l-.56.48.83.13a.24.24,0,0,1-.09.44L43,32.62a2.27,2.27,0,0,1-.21,2.07l-.17.19h0l.09-.05a2.32,2.32,0,0,1,2.28.41,2.17,2.17,0,0,1-2,1.44A1.26,1.26,0,0,1,42,36.23l-.7.23.72.44a.23.23,0,0,1-.25.37l-1.29-.78a2.29,2.29,0,0,1-.1,1.5c.21-.2.29-.32.48-.53l1.79,1.79-1.37,2.49A28.45,28.45,0,0,0,44.76,38l.16,1.71,1.91-.59a21,21,0,0,1-9,7.75M46.7,23.06H45.08l-.16.17H43.57a2.19,2.19,0,0,1,1,1.92c0,.09,0,.18-.05.27l.12-.21a2.76,2.76,0,0,1,2.17-.77,2.28,2.28,0,0,1-1,2.39A1.35,1.35,0,0,1,44.5,27l-.4.5h.84a.23.23,0,0,1,0,.44l-2.84,0c-.14,0-.24-.33,0-.48h.88c-.13-.21-.23-.33-.36-.54a1.22,1.22,0,0,1-1.36-.08c-.77-.52-1-1.5-.81-2.81a2.86,2.86,0,0,1,2.07,1l.14.26,0-.15a2.49,2.49,0,0,1,.95-1.92H42.08l-.14-.16H40.4V21.61h.42a3.35,3.35,0,0,1-.38-1.74h0V17.93l1-.44-.17-.08a2.82,2.82,0,0,1-.81-2.6l0-.79H38.79l3.83-3.64.1,1.87,1.59.31-3,2.28a2.42,2.42,0,0,1,1.17.9,2.88,2.88,0,0,1,.28,1.1l.13-.07a2.3,2.3,0,0,1,.63-3,2.25,2.25,0,0,1,.91,2c0,.1-.05.26-.08.37l.12-.06,0-.11a2.56,2.56,0,0,1,2.27-1,2.75,2.75,0,0,1-.7,2.22l1.14.79-3.16.87a2.09,2.09,0,0,1,.43,1.83l.1-.14a2.65,2.65,0,0,1,2.18-.81,2.44,2.44,0,0,1-.35,1.86h1.35Z"/><path class="cls-1" d="M18.63,36.75h0c0,.44.37.38.45.27a1.59,1.59,0,0,1,.1-.65l-.05.1c-.24,0-.46,0-.51.28"/><path class="cls-1" d="M24.35,42.68l0-.13v0l.16-.07a.33.33,0,0,0,.14-.22.62.62,0,0,0,0-.24l-.1-.18a.59.59,0,0,0-.2-.11l-.48-.18-.3,1.36.21.09.13-.58.1,0,0,0h0l.05.05,0,.1,0,.2.08.34.25.08-.1-.48Zm-.2-.43-.23-.08.07-.32.25.1.13.09v.13l0,.07h0l-.06,0Z"/><polygon class="cls-1" points="44.19 21.61 44.19 21.53 44.15 21.61 44.19 21.61"/><path class="cls-1" d="M23.14,41.89l-.06.23.28.14-.05.17-.1,0-.17,0-.15-.13-.08-.19a1,1,0,0,1,0-.29l.1-.22.08-.07.11,0,.14,0,.11.09.06.11v.19l.22,0v0l0-.26-.11-.21-.19-.14-.23-.05h-.07a.41.41,0,0,0-.27.17,1,1,0,0,0-.16.32,1.64,1.64,0,0,0,0,.38.59.59,0,0,0,.13.33.56.56,0,0,0,.25.21l.21.06h0a.91.91,0,0,0,.26-.05h0l.14-.52Z"/><path class="cls-1" d="M46.66,20a2.38,2.38,0,0,0-1.89.71,1.51,1.51,0,0,0-.39.93h.38l-.19-.52.06-.07.22.55.37-.39L45,20.62l.06-.06.28.57.43-.44-.25-.42.06-.05.26.42.68-.6,0,.06-.68.62.58.13,0,.07-.59-.13-.37.38.77.23,0,.07-.79-.21-.35.35h1.17A2.86,2.86,0,0,0,46.66,20"/><path class="cls-1" d="M37.28,42.52h0a.8.8,0,0,0,.31-.09.59.59,0,0,0,.32-.41l0-.23-.16-.16-.23,0a1.58,1.58,0,0,0-.29,0h0a.94.94,0,0,1-.25,0l-.08-.06V41.5l.15-.12.17-.05h0l.14.1,0,0,.22-.13,0,0-.17-.17a.57.57,0,0,0-.24,0h0l-.26.08a.67.67,0,0,0-.22.17l-.1.22,0,.22.15.14L37,42l.27,0,.08,0,.14,0h.12l.05.05,0,.09,0,.11-.12.09-.19,0-.13,0-.11-.12,0,0-.22.11,0,0,.2.22a.4.4,0,0,0,.26.07Z"/><path class="cls-1" d="M15.7,28.09a1.86,1.86,0,0,1,.32-.46h0c-.21-.11-.41-.17-.57,0l-.15,0a.6.6,0,0,1,.86-.1l.09,0a1.24,1.24,0,0,1,.61.59c.16.13.54-.17.17-.49h0a.39.39,0,0,0-.52.07l-.13-.1.23-.16h-.08l.36-.51-.19-.47.07-.16.2.52.3-.45-.24-.5.06-.12.25.52.33-.48-.25-.61.08-.12.26.6.34-.5L18,24.67l.11-.08.14.39.42-.61.1.09-.41.59.3.14,0,.13-.33-.16-.36.52.42.12-.1.14-.41-.13-.33.47.4.13-.1.12-.37-.14-.31.45.34,0-.1.11L17,27l-.28.38a.45.45,0,0,1,.45.14,3.88,3.88,0,0,0,1.69-3.32c-.66-.14-2,.68-2.29,2.45.21-1.73.08-3-.58-3.45h0a3.12,3.12,0,0,0-.46,3.46c-.87-2.05-1.47-1.91-2.88-2.1a4.44,4.44,0,0,0,2.76,3.14c-.17.4.15.5.27.44m-.18-2.34,0-.14.59.19,0-.64-.64-.26,0-.16L16,25l0-.66-.44-.18,0-.16.39.19-.05-.81h.15l.05.78.35-.14.06.14-.4.15,0,.69.46-.26,0,.19-.46.24,0,.63.44-.23v.18l-.42.19,0,.6.33-.24,0,.16-.3.23,0,.7h-.14l-.05-.68-.49-.22-.05-.18.53.24,0-.6Zm-.81,1.32-.14-.1.55-.1-.39-.38-.54.15-.1-.08.55-.16-.41-.4-.65.13L13.47,26l.64-.16-.42-.41-.45.09-.06-.12.41-.07-.53-.52.11-.08.51.5.18-.27.13.05-.22.31.45.45.19-.4.12.12-.2.38.41.41.19-.37.1.12-.2.34.39.38.1-.32.09.12-.09.29.45.45-.16,0L15.22,27Z"/><path class="cls-1" d="M33.84,43.05a1.33,1.33,0,0,0-.11-.32l-.21-.19-.22-.06-.16,0-.11,0-.48.11.2,1.39.53-.12.22-.07.16-.12,0,0,.09-.13.06-.23a.61.61,0,0,0,0-.27Zm-.24.3-.06.17-.09.07-.19.07-.25.05-.14-.89.24-.06.22,0,.16.09a.54.54,0,0,1,.11.28Z"/><path class="cls-1" d="M16.94,32.27a.88.88,0,0,1,.23-.24,1.23,1.23,0,0,1,.7.47c.19.1.51-.26.09-.51a3.79,3.79,0,0,0,1.15-3.66c-.73-.15-1.84,1-1.77,2.8-.1-1.76-.45-2.95-1.19-3.3a3,3,0,0,0,.17,3.5,2.88,2.88,0,0,0-3.2-1.56,4.39,4.39,0,0,0,3.26,2.59c-.08.43.24.47.35.4a2.2,2.2,0,0,1,.13-.34l.06-.15Zm.44-.4.25-.52-.28-.44,0-.17.28.48.22-.49-.33-.46,0-.12.35.46.23-.53-.35-.56.05-.13.37.55.24-.55L18.25,29l.1-.11.21.36.3-.67.11.07-.29.65.32.08v.14l-.36-.09-.26.57.43,0-.07.16-.43-.06-.23.52.41.06-.08.13L18,30.79l-.22.5.34,0-.08.12-.31,0-.16.34a.47.47,0,0,1,.5.1l-.12.09a.39.39,0,0,0-.55.14L17.27,32Zm-1.08-.63-.08-.17.57.14-.14-.58-.59-.08,0-.13.6.08-.15-.62-.68-.15,0-.14.68.12-.16-.64L15.79,29v-.17l.42.11L16,28.14l.15,0,.19.76.32-.2.08.12L16.4,29l.16.67.4-.34.05.19-.41.32.15.61.39-.31,0,.18-.38.26.15.59.28-.3V31l-.25.28.17.68L17,32l-.16-.66Zm0,1.09h-.15a.46.46,0,0,1,.23-.26L16,31.79l-.48.19-.16-.07.52-.2-.45-.3-.5.24-.11,0,.51-.26L14.86,31l-.61.25-.12-.07.6-.27-.5-.33-.41.17-.09-.11.39-.14-.61-.42.09-.1.59.4.13-.3.14,0-.16.34.52.36.12-.43.15.1-.14.42.47.32.13-.4.12.1-.14.37.46.31,0-.34.11.1,0,.31.46.31a.74.74,0,0,1,.47.08l-.12.13c-.23-.08-.46-.11-.58.12"/><path class="cls-1" d="M35.94,40.2a27.24,27.24,0,0,1-4.29,1.31l-.65.84a22.59,22.59,0,0,0,3.91-1.11Z"/><path class="cls-1" d="M17.07,32.3a2,2,0,0,1,.73.38,1.86,1.86,0,0,0-.61-.5Z"/><polygon class="cls-1" points="31.67 39.89 31.78 39.81 31.87 39.74 32.02 40.71 32.26 40.67 32.04 39.27 31.87 39.3 31.86 39.33 31.75 39.51 31.54 39.69 31.52 39.71 31.56 39.97 31.62 39.93 31.67 39.89"/><path class="cls-1" d="M33.83,39.08a1.27,1.27,0,0,0-.08.31,2.42,2.42,0,0,0,0,.38v.1a2.5,2.5,0,0,0,.06.38l0,0,.24-.07,0,0a1.63,1.63,0,0,1-.05-.35,2.47,2.47,0,0,1,0-.5,1.21,1.21,0,0,1,.11-.39v0l-.06-.2-.9.3.08.24Z"/><path class="cls-1" d="M28.35,42.8a.49.49,0,0,0-.26-.13.44.44,0,0,0-.42.14.86.86,0,0,0-.19.52,1.37,1.37,0,0,0,0,.35.74.74,0,0,0,.17.29.51.51,0,0,0,.28.15H28l.21-.06a.49.49,0,0,0,.22-.23,1.09,1.09,0,0,0,.11-.36,1.38,1.38,0,0,0,0-.37.68.68,0,0,0-.17-.3m-.15,1-.19.08h0l-.21-.15a.67.67,0,0,1-.06-.35.65.65,0,0,1,.13-.38l.2-.07h0l.16.09.09.18,0,.26a.71.71,0,0,1-.12.34"/><path class="cls-1" d="M32.58,40l.24.07h.1l.17-.11h0l0,0v.23l-.05.08-.1.05h-.12l-.07-.11,0,0-.24.09v0a.48.48,0,0,0,.19.24l.19.05.12,0a.41.41,0,0,0,.24-.16.55.55,0,0,0,.11-.27,1.43,1.43,0,0,0,0-.41.92.92,0,0,0-.15-.37.48.48,0,0,0-.22-.16.52.52,0,0,0-.28,0,.47.47,0,0,0-.27.19.6.6,0,0,0,0,.39.48.48,0,0,0,.2.3m.07-.55.14-.11h0l.14,0,.09.14v.18l-.14.1h-.07l-.11,0-.09-.13Z"/><polygon class="cls-1" points="28.68 39.35 28.53 39.49 28.28 39.6 28.25 39.61 28.22 39.87 28.29 39.84 28.35 39.83 28.48 39.79 28.57 39.74 28.43 40.72 28.67 40.75 28.87 39.35 28.7 39.32 28.68 39.35"/><path class="cls-1" d="M24.35,40.38l.77.92a22.12,22.12,0,0,0,4,1l-.77-.81a22.61,22.61,0,0,1-4-1.15"/><path class="cls-1" d="M35.19,42.28a.64.64,0,0,0-.31-.17.59.59,0,0,0-.37,0,.63.63,0,0,0-.41.33.75.75,0,0,0,0,.57v0a.7.7,0,0,0,.19.3.61.61,0,0,0,.32.18h.14l.23,0a.77.77,0,0,0,.29-.19.61.61,0,0,0,.16-.32.77.77,0,0,0,0-.39.64.64,0,0,0-.19-.34m-.06.79a.45.45,0,0,1-.24.21.42.42,0,0,1-.33,0,.46.46,0,0,1-.22-.28.54.54,0,0,1,0-.4.41.41,0,0,1,.25-.19l.13,0h.1l.18.12.13.21a.5.5,0,0,1,0,.38"/><path class="cls-1" d="M34.79,38.65a3,3,0,0,0,0,.33,3.14,3.14,0,0,0,0,.45v0a2.13,2.13,0,0,0,.11.37l0,0,.23-.1,0,0a1.23,1.23,0,0,1-.09-.34,2,2,0,0,1,0-.5,1.47,1.47,0,0,1,.06-.4v0L35,38.27l-.85.41.11.23Z"/><path class="cls-1" d="M43.77,19l-.16,0v1l.53-.17,0,.07-.57.17v.61l.65-.2v.07l-.64.24,0,.49L44.2,21l0,.12-.54.2v.28H44a3,3,0,0,0,.35-1.14A1.71,1.71,0,0,0,43.77,19"/><path class="cls-1" d="M37.49,43.34,37,44.42A18.56,18.56,0,0,0,40.7,42l.94-1.73a18.57,18.57,0,0,1-4.15,3.1"/><path class="cls-1" d="M25.64,42.52a.58.58,0,0,0-.13-.31.49.49,0,0,0-.25-.18.41.41,0,0,0-.42.07.81.81,0,0,0-.24.48,1.08,1.08,0,0,0,0,.36.8.8,0,0,0,.13.32.64.64,0,0,0,.26.18l.14,0,.14,0a.52.52,0,0,0,.24-.2.81.81,0,0,0,.14-.34,1,1,0,0,0,0-.38m-.22.31a.64.64,0,0,1-.15.32l-.15.06-.09,0a.33.33,0,0,1-.19-.18.57.57,0,0,1,0-.37A.49.49,0,0,1,25,42.3l.14,0h.08l.15.1.08.2a.78.78,0,0,1,0,.26"/><path class="cls-1" d="M26.36,43a1,1,0,0,0-.21-.15c-.13-.07-.17-.12-.17-.13l0-.09.06-.09h.14l.14.07,0,.17v0l.21.07v-.06l0-.23-.13-.19-.2-.11H26l-.16.11-.09.2v.18l.1.17a.88.88,0,0,0,.19.15l.14.09h0l.05.08v.09l0,.07-.08.05h-.1l-.13-.07-.07-.12v-.18L25.64,43v.05a.52.52,0,0,0,0,.28.51.51,0,0,0,.13.24.63.63,0,0,0,.23.13h.23l.18-.13.08-.2,0-.22Z"/><path class="cls-1" d="M44.24,15.81a2.1,2.1,0,0,0-.75-1.76A2.23,2.23,0,0,0,43,16.7l.27-.11-.37-.18,0-.1.52.21h0V16l-.59-.21v-.08l.58.19v-.57l-.53-.16v-.06l.55.13,0-1.05h.07v1l.54-.16,0,.06-.57.17v.61l.65-.2,0,.07-.65.24,0,.41.61-.29a1.87,1.87,0,0,0,0-.35"/><path class="cls-1" d="M27.3,42.59l-.21-.09h-.21l-.17.13-.08.19,0,.19.1.17.2.12.07.05.09,0,.05.06v.1l0,.06h0l0,0H27l-.13-.06-.07-.12v-.18l-.21,0v0a.48.48,0,0,0,0,.27l.13.23.25.11H27l.13,0,.18-.14.08-.19,0-.23-.13-.17-.2-.12h0a.48.48,0,0,1-.17-.12l0-.09.06-.09h.14l.14.07,0,.15v0l.21,0v0l0-.23Z"/><path class="cls-1" d="M42.82,25.28c.1,1.66,1.41,1.59,1.49,0a2.11,2.11,0,0,0-.76-1.76,2,2,0,0,0-.73,1.79m.8-.65.53-.17,0,.06-.56.18v.61l.65-.21v.07l-.64.25,0,.49.54-.22,0,.13-.54.2v.38h-.16V26L43,25.78v-.1l.52.22v-.52l-.58-.2v-.09l.57.19v-.57L43,24.55V24.5l.55.12,0-1.05h.07Z"/></svg>